<svg width="4000" height="2000" viewBox="0 0 4000 2000" fill="none" xmlns="http://www.w3.org/2000/svg">
<path d="M4000 0H0V2000H4000V0Z" fill="#6B99DE"/>
<path d="M955 1600C1286.37 1600 1555 1331.37 1555 1000C1555 668.629 1286.37 400 955 400C623.629 400 355 668.629 355 1000C355 1331.37 623.629 1600 955 1600Z" fill="white"/>
<path d="M955 1599.5C1286.09 1599.5 1554.5 1331.09 1554.5 1000C1554.5 668.905 1286.09 400.5 955 400.5C623.905 400.5 355.5 668.905 355.5 1000C355.5 1331.09 623.905 1599.5 955 1599.5Z" stroke="#707070"/>
<path d="M1919 769.766C1918.95 764.361 1919.93 758.997 1921.89 753.959C1923.73 749.211 1926.49 744.869 1930 741.179C1933.53 737.511 1937.77 734.603 1942.47 732.633C1947.51 730.527 1952.92 729.472 1958.38 729.533C1962.44 729.482 1966.47 730.121 1970.31 731.423C1974.13 732.826 1977.65 734.929 1980.69 737.623V731.043H2000.3V808.487H1980.69V801.907C1977.65 804.602 1974.13 806.705 1970.31 808.107C1966.47 809.41 1962.44 810.051 1958.38 810C1952.92 810.061 1947.51 809.007 1942.47 806.9C1937.77 804.931 1933.53 802.023 1930 798.355C1926.49 794.664 1923.73 790.322 1921.89 785.573C1919.93 780.535 1918.95 775.17 1919 769.766ZM1960.93 791.925C1962.56 791.916 1964.19 791.752 1965.79 791.434C1967.56 791.082 1969.29 790.523 1970.93 789.77C1972.74 788.937 1974.43 787.882 1975.98 786.631C1977.74 785.211 1979.32 783.586 1980.69 781.791V757.741C1979.32 755.953 1977.74 754.34 1975.98 752.941C1974.42 751.707 1972.72 750.654 1970.92 749.802C1969.29 749.024 1967.56 748.453 1965.79 748.102C1964.19 747.784 1962.56 747.62 1960.93 747.61C1958 747.588 1955.1 748.153 1952.39 749.274C1949.8 750.345 1947.45 751.927 1945.48 753.925C1943.51 755.947 1941.95 758.337 1940.89 760.959C1938.68 766.624 1938.68 772.915 1940.89 778.58C1941.95 781.202 1943.51 783.591 1945.48 785.613C1947.45 787.612 1949.8 789.194 1952.39 790.265C1955.1 791.383 1958 791.948 1960.93 791.925ZM2049.33 748.65C2040.04 748.716 2031.97 755.059 2031.97 764.473V808.488H2012.35V765C2012.46 746.866 2028.5 729.774 2049.05 729.53H2049.6C2070.15 729.774 2086.19 746.866 2086.3 765V808.486H2066.68V764.473C2066.68 755.059 2058.61 748.716 2049.32 748.65H2049.33ZM2095.58 769.766C2095.54 764.361 2096.52 758.997 2098.48 753.959C2100.32 749.211 2103.07 744.869 2106.58 741.179C2110.11 737.513 2114.36 734.605 2119.05 732.633C2124.09 730.527 2129.5 729.472 2134.96 729.533C2139.03 729.483 2143.08 730.122 2146.93 731.423C2150.73 732.802 2154.24 734.88 2157.28 737.55V707.827H2176.89V808.488H2157.28V801.988C2154.26 804.694 2150.75 806.787 2146.93 808.151C2143.07 809.426 2139.02 810.051 2134.96 810C2129.5 810.061 2124.09 809.007 2119.05 806.9C2114.36 804.928 2110.11 802.021 2106.58 798.355C2103.07 794.664 2100.32 790.322 2098.48 785.573C2096.52 780.535 2095.54 775.171 2095.58 769.766ZM2137.51 791.925C2139.14 791.916 2140.77 791.752 2142.37 791.434C2144.14 791.082 2145.87 790.523 2147.51 789.77C2149.32 788.934 2151.02 787.88 2152.57 786.631C2154.32 785.205 2155.9 783.581 2157.28 781.791V757.741C2155.91 755.957 2154.33 754.346 2152.57 752.941C2151.01 751.709 2149.31 750.657 2147.51 749.802C2145.87 749.025 2144.15 748.454 2142.37 748.102C2140.77 747.784 2139.14 747.62 2137.51 747.61C2134.58 747.588 2131.68 748.153 2128.98 749.274C2126.39 750.34 2124.03 751.923 2122.07 753.925C2120.09 755.947 2118.53 758.336 2117.47 760.959C2115.26 766.624 2115.26 772.915 2117.47 778.58C2118.53 781.202 2120.09 783.592 2122.07 785.613C2124.03 787.616 2126.39 789.199 2128.98 790.265C2131.68 791.383 2134.58 791.948 2137.51 791.925ZM2268.73 791.925C2271.58 791.942 2274.4 791.39 2277.03 790.299C2279.58 789.246 2281.89 787.69 2283.83 785.724C2285.79 783.712 2287.34 781.333 2288.38 778.724C2289.52 775.875 2290.08 772.829 2290.04 769.762C2290.08 766.717 2289.5 763.695 2288.35 760.876C2287.27 758.264 2285.7 755.886 2283.71 753.876C2281.76 751.916 2279.46 750.35 2276.92 749.263C2274.33 748.152 2271.55 747.586 2268.73 747.599C2265.92 747.586 2263.14 748.134 2260.55 749.212C2257.96 750.29 2255.61 751.876 2253.64 753.876C2251.68 755.896 2250.12 758.272 2249.04 760.876C2247.88 763.695 2247.31 766.717 2247.34 769.763C2247.3 772.83 2247.87 775.874 2249 778.724C2250.05 781.332 2251.6 783.71 2253.56 785.724C2255.49 787.69 2257.8 789.246 2260.35 790.299C2263.01 791.394 2265.86 791.946 2268.73 791.925ZM2268.73 810C2263.21 810.035 2257.73 809.008 2252.59 806.975C2247.68 805.039 2243.18 802.176 2239.35 798.542C2235.55 794.915 2232.51 790.572 2230.4 785.762C2228.18 780.722 2227.06 775.268 2227.11 769.762C2227.07 764.344 2228.2 758.981 2230.4 754.032C2232.52 749.237 2235.54 744.897 2239.31 741.251C2247.22 733.688 2257.74 729.467 2268.69 729.467C2279.63 729.467 2290.16 733.688 2298.07 741.251C2301.84 744.897 2304.87 749.237 2306.99 754.032C2309.19 758.982 2310.31 764.345 2310.27 769.762C2310.32 775.267 2309.2 780.721 2306.99 785.762C2304.88 790.572 2301.84 794.915 2298.04 798.542C2294.22 802.171 2289.73 805.034 2284.83 806.975C2279.71 809.012 2274.24 810.039 2268.73 810ZM2328.87 724.981C2327.32 724.989 2325.78 724.678 2324.36 724.068C2322.98 723.481 2321.71 722.64 2320.64 721.588C2319.57 720.544 2318.71 719.305 2318.11 717.94C2317.49 716.545 2317.17 715.035 2317.17 713.508C2317.17 711.982 2317.49 710.472 2318.11 709.077C2318.7 707.696 2319.56 706.444 2320.64 705.393C2321.71 704.341 2322.98 703.5 2324.36 702.912C2325.79 702.302 2327.32 701.992 2328.87 702C2330.43 701.994 2331.97 702.304 2333.41 702.912C2334.81 703.492 2336.09 704.334 2337.17 705.393C2338.25 706.446 2339.11 707.697 2339.71 709.077C2340.33 710.479 2340.65 711.995 2340.64 713.527C2340.65 715.048 2340.33 716.552 2339.71 717.941C2338.47 720.714 2336.22 722.907 2333.41 724.068C2331.97 724.676 2330.43 724.987 2328.87 724.981ZM2319.06 731.044H2338.67V808.488H2319.06V731.044ZM2347.69 769.766C2347.65 764.361 2348.63 758.997 2350.59 753.959C2352.43 749.211 2355.18 744.869 2358.69 741.179C2362.22 737.513 2366.47 734.606 2371.16 732.633C2376.2 730.527 2381.61 729.472 2387.07 729.533C2391.14 729.483 2395.19 730.122 2399.04 731.423C2402.84 732.802 2406.35 734.88 2409.39 737.55V707.827H2429V808.488H2409.39V801.988C2406.37 804.694 2402.86 806.787 2399.04 808.151C2395.18 809.426 2391.13 810.05 2387.07 810C2381.61 810.061 2376.2 809.007 2371.16 806.9C2366.47 804.928 2362.22 802.021 2358.69 798.355C2355.18 794.664 2352.43 790.322 2350.59 785.573C2348.63 780.535 2347.65 775.171 2347.69 769.766ZM2389.62 791.925C2391.25 791.916 2392.88 791.752 2394.48 791.434C2396.25 791.082 2397.98 790.523 2399.62 789.77C2401.43 788.937 2403.12 787.882 2404.67 786.631C2406.43 785.208 2408.01 783.584 2409.39 781.791V757.741C2408.02 755.955 2406.43 754.343 2404.67 752.941C2403.11 751.707 2401.42 750.654 2399.62 749.802C2397.98 749.025 2396.26 748.454 2394.48 748.102C2392.88 747.784 2391.25 747.62 2389.62 747.61C2386.69 747.588 2383.79 748.153 2381.09 749.274C2378.5 750.34 2376.14 751.923 2374.18 753.925C2372.2 755.947 2370.64 758.336 2369.58 760.959C2367.37 766.624 2367.37 772.915 2369.58 778.58C2370.64 781.202 2372.2 783.592 2374.18 785.613C2376.15 787.614 2378.5 789.196 2381.09 790.265C2383.79 791.383 2386.69 791.948 2389.62 791.925ZM2225.25 748.417C2212.1 748.417 2206.31 755.059 2206.31 764.473V808.488H2186.69V765C2186.8 746.866 2197.5 729.039 2225.25 729.039" fill="white"/>
<path d="M1919.54 940.3H1992.44V961H1973.24L1998.44 1045.9L2011.64 1089.7L2020.64 1047.4L2045.24 962.8H2071.64L2092.64 1045.6L2102.24 1089.4L2115.14 1045.6L2143.04 961H2123.84V940.3H2192.54V961H2164.04L2114.84 1117H2087.24L2065.94 1036.3L2056.34 995.8L2044.64 1037.8L2023.64 1117H1997.84L1948.04 961H1919.54V940.3ZM2199.17 1117V1098.4H2224.37V950.5L2195.87 940.6L2202.17 922L2247.77 937.6V996.4C2260.77 988 2273.87 983.8 2287.07 983.8C2305.47 983.8 2318.97 987.9 2327.57 996.1C2336.37 1004.3 2340.77 1017.1 2340.77 1034.5V1098.4H2365.97V1117H2303.87V1098.4H2317.37V1039.3C2317.37 1026.5 2314.87 1017.3 2309.87 1011.7C2304.87 1005.9 2296.77 1003 2285.57 1003C2278.97 1003 2272.17 1004 2265.17 1006C2258.17 1007.8 2252.37 1010.2 2247.77 1013.2V1098.4H2261.27V1117H2199.17ZM2503.63 1101.7C2495.63 1108.5 2487.43 1113.5 2479.03 1116.7C2470.83 1119.9 2461.43 1121.5 2450.83 1121.5C2429.63 1121.5 2412.73 1115.5 2400.13 1103.5C2387.73 1091.3 2381.53 1074.3 2381.53 1052.5C2381.53 1038.7 2384.23 1026.7 2389.63 1016.5C2395.03 1006.1 2402.63 998.1 2412.43 992.5C2422.43 986.7 2433.93 983.8 2446.93 983.8C2465.13 983.8 2479.33 989.5 2489.53 1000.9C2499.93 1012.3 2505.13 1027.5 2505.13 1046.5C2505.13 1048.3 2505.03 1050.2 2504.83 1052.2C2504.83 1054 2504.73 1055.9 2504.53 1057.9L2404.63 1058.5C2405.23 1068.7 2407.63 1077 2411.83 1083.4C2416.23 1089.8 2421.73 1094.5 2428.33 1097.5C2435.13 1100.5 2442.33 1102 2449.93 1102C2466.93 1102 2481.23 1097.2 2492.83 1087.6L2503.63 1101.7ZM2482.03 1039.6C2481.83 1028.4 2478.53 1019.4 2472.13 1012.6C2465.93 1005.6 2457.63 1002.1 2447.23 1002.1C2436.63 1002.1 2427.33 1005.6 2419.33 1012.6C2411.33 1019.4 2406.53 1028.5 2404.93 1039.9L2482.03 1039.6ZM2566.83 997.9C2573.63 993.3 2581.33 989.8 2589.93 987.4C2598.53 985 2607.13 983.8 2615.73 983.8C2622.93 983.8 2626.73 984 2627.13 984.4L2632.23 1015.9L2612.73 1020.1L2609.73 1003.3C2603.53 1003.3 2597.13 1004.2 2590.53 1006C2584.13 1007.8 2578.23 1010.3 2572.83 1013.5V1098.4H2602.23V1117H2524.23V1098.4H2549.43V1012.6L2520.63 1002.7L2526.93 984.1L2566.83 997.9ZM2767.59 1101.7C2759.59 1108.5 2751.39 1113.5 2742.99 1116.7C2734.79 1119.9 2725.39 1121.5 2714.79 1121.5C2693.59 1121.5 2676.69 1115.5 2664.09 1103.5C2651.69 1091.3 2645.49 1074.3 2645.49 1052.5C2645.49 1038.7 2648.19 1026.7 2653.59 1016.5C2658.99 1006.1 2666.59 998.1 2676.39 992.5C2686.39 986.7 2697.89 983.8 2710.89 983.8C2729.09 983.8 2743.29 989.5 2753.49 1000.9C2763.89 1012.3 2769.09 1027.5 2769.09 1046.5C2769.09 1048.3 2768.99 1050.2 2768.79 1052.2C2768.79 1054 2768.69 1055.9 2768.49 1057.9L2668.59 1058.5C2669.19 1068.7 2671.59 1077 2675.79 1083.4C2680.19 1089.8 2685.69 1094.5 2692.29 1097.5C2699.09 1100.5 2706.29 1102 2713.89 1102C2730.89 1102 2745.19 1097.2 2756.79 1087.6L2767.59 1101.7ZM2745.99 1039.6C2745.79 1028.4 2742.49 1019.4 2736.09 1012.6C2729.89 1005.6 2721.59 1002.1 2711.19 1002.1C2700.59 1002.1 2691.29 1005.6 2683.29 1012.6C2675.29 1019.4 2670.49 1028.5 2668.89 1039.9L2745.99 1039.6ZM2885.86 1108.3C2872.86 1117.1 2858.76 1121.5 2843.56 1121.5C2809.56 1121.5 2792.36 1108.2 2791.96 1081.6C2791.56 1055.4 2808.16 1042.3 2841.76 1042.3L2880.46 1042.6C2880.46 1016.2 2870.36 1003 2850.16 1003C2840.36 1003 2831.36 1004.2 2823.16 1006.6L2820.16 1023.1L2800.96 1019.5L2805.76 992.2C2821.36 986.6 2835.86 983.8 2849.26 983.8C2885.66 983.8 2903.86 1003 2903.86 1041.4V1093.6L2932.36 1102.9L2926.36 1122.1L2885.86 1108.3ZM2842.66 1061.2C2824.86 1061.2 2815.96 1067.9 2815.96 1081.3C2815.96 1095.3 2825.56 1102.3 2844.76 1102.3C2858.56 1102.3 2870.46 1098.5 2880.46 1090.9V1061.5L2842.66 1061.2ZM3015.27 1121.5C3004.87 1121.5 2994.67 1120.1 2984.67 1117.3C2974.87 1114.5 2966.17 1110.3 2958.57 1104.7V950.8L2930.07 940.9L2936.37 922.3L2981.67 937.9V993.7C2994.07 987.1 3005.67 983.8 3016.47 983.8C3038.47 983.8 3054.57 989.1 3064.77 999.7C3075.17 1010.3 3080.37 1026.8 3080.37 1049.2C3080.37 1074 3075.07 1092.3 3064.47 1104.1C3054.07 1115.7 3037.67 1121.5 3015.27 1121.5ZM3014.97 1102.3C3029.17 1102.3 3039.57 1098 3046.17 1089.4C3052.97 1080.8 3056.37 1067.4 3056.37 1049.2C3056.37 1033.2 3053.07 1021.5 3046.47 1014.1C3040.07 1006.7 3029.97 1003 3016.17 1003C3005.37 1003 2993.87 1006.7 2981.67 1014.1V1094.8C2990.47 1099.8 3001.57 1102.3 3014.97 1102.3ZM3171.16 983.8C3184.56 983.8 3196.16 986.6 3205.96 992.2C3215.96 997.6 3223.76 1005.5 3229.36 1015.9C3234.96 1026.1 3237.76 1038.4 3237.76 1052.8C3237.76 1074.2 3231.66 1091 3219.46 1103.2C3207.26 1115.4 3191.16 1121.5 3171.16 1121.5C3158.36 1121.5 3146.96 1118.8 3136.96 1113.4C3127.16 1107.8 3119.46 1099.9 3113.86 1089.7C3108.46 1079.3 3105.76 1067 3105.76 1052.8C3105.76 1038.4 3108.46 1026.1 3113.86 1015.9C3119.46 1005.5 3127.16 997.6 3136.96 992.2C3146.96 986.6 3158.36 983.8 3171.16 983.8ZM3171.46 1003C3157.66 1003 3147.26 1007.4 3140.26 1016.2C3133.26 1024.8 3129.76 1037 3129.76 1052.8C3129.76 1068.6 3133.26 1080.8 3140.26 1089.4C3147.26 1098 3157.66 1102.3 3171.46 1102.3C3185.66 1102.3 3196.26 1098 3203.26 1089.4C3210.26 1080.8 3213.76 1068.6 3213.76 1052.8C3213.76 1037 3210.26 1024.8 3203.26 1016.2C3196.26 1007.4 3185.66 1003 3171.46 1003ZM3379.81 1108.3C3373.41 1112.3 3366.21 1115.5 3358.21 1117.9C3350.21 1120.3 3342.71 1121.5 3335.71 1121.5C3317.31 1121.5 3303.71 1117.4 3294.91 1109.2C3286.31 1101 3282.01 1088.2 3282.01 1070.8V1006.9H3256.81V988.3H3305.41V1066C3305.41 1078.8 3307.91 1088.1 3312.91 1093.9C3318.11 1099.5 3326.21 1102.3 3337.21 1102.3C3343.61 1102.3 3350.41 1101.4 3357.61 1099.6C3364.81 1097.6 3370.61 1095.1 3375.01 1092.1V1006.9H3349.81V988.3H3398.41V1093.6L3426.61 1103.2L3420.61 1122.4L3379.81 1108.3ZM3506.82 1121.5C3499.62 1121.5 3492.72 1120.1 3486.12 1117.3C3479.72 1114.5 3474.52 1109.5 3470.52 1102.3C3466.52 1095.1 3464.52 1085.1 3464.52 1072.3V1006.9H3439.62V988.3H3464.52V959.2L3487.32 953.8V988.3H3524.82V1006.9H3487.32V1059.1C3487.32 1072.5 3488.62 1083.3 3491.22 1091.5C3493.82 1099.7 3499.52 1103.8 3508.32 1103.8C3514.52 1103.8 3521.52 1102 3529.32 1098.4L3533.82 1115.2C3529.62 1116.8 3525.22 1118.2 3520.62 1119.4C3516.02 1120.8 3511.42 1121.5 3506.82 1121.5ZM3636.2 1007.2C3631.8 1005.4 3627.6 1004 3623.6 1003C3619.6 1002 3614.4 1001.5 3608 1001.5C3600.4 1001.5 3593.5 1003.2 3587.3 1006.6C3581.3 1010 3578.3 1014.8 3578.3 1021C3578.3 1027 3580.8 1031.7 3585.8 1035.1C3591 1038.3 3598.2 1040.4 3607.4 1041.4L3619.7 1042.6C3636.1 1044.2 3647.6 1048.3 3654.2 1054.9C3660.8 1061.3 3664.1 1069.8 3664.1 1080.4C3664.1 1092.6 3659.1 1102.5 3649.1 1110.1C3639.1 1117.7 3626.1 1121.5 3610.1 1121.5C3600.3 1121.5 3590.7 1120.2 3581.3 1117.6C3572.1 1115 3564.1 1111.8 3557.3 1108L3552.2 1077.7L3572.9 1072.6L3577.4 1093.6C3582 1096.2 3587 1098.2 3592.4 1099.6C3598 1101 3603.6 1101.7 3609.2 1101.7C3618 1101.7 3625.7 1100 3632.3 1096.6C3639.1 1093 3642.5 1087.8 3642.5 1081C3642.5 1075 3640.5 1070.8 3636.5 1068.4C3632.5 1065.8 3625.5 1063.9 3615.5 1062.7L3602.3 1061.2C3587.5 1059.6 3576.2 1055.3 3568.4 1048.3C3560.6 1041.3 3556.7 1032.7 3556.7 1022.5C3556.7 1013.7 3559.2 1006.4 3564.2 1000.6C3569.2 994.8 3575.6 990.5 3583.4 987.7C3591.4 984.9 3599.7 983.5 3608.3 983.5C3617.7 983.5 3626.1 984.4 3633.5 986.2C3640.9 988 3648 990.6 3654.8 994L3660.2 1022.5L3641.3 1026.7L3636.2 1007.2Z" fill="white"/>
<path d="M2062.91 574.29C2056.19 562.667 2046.52 553.018 2034.89 546.311C2023.13 539.555 2009.8 536 1996.24 536C1982.68 536 1969.35 539.555 1957.59 546.311C1945.96 553.018 1936.29 562.667 1929.57 574.29C1923.85 584.179 1920.4 595.217 1919.48 606.603C1918.55 617.99 1920.18 629.439 1924.23 640.12C1928.28 650.802 1934.66 660.448 1942.9 668.358C1951.14 676.268 1961.04 682.244 1971.88 685.853C1973.68 686.187 1975.02 685.953 1975.89 685.153C1976.31 684.775 1976.64 684.312 1976.87 683.794C1977.09 683.277 1977.2 682.717 1977.19 682.153C1977.19 681.953 1977.17 680.153 1977.14 676.747C1977.11 673.341 1977.09 670.373 1977.09 667.84L1974.78 668.24C1972.94 668.533 1971.08 668.65 1969.22 668.59C1966.88 668.549 1964.55 668.315 1962.25 667.89C1959.8 667.441 1957.5 666.413 1955.53 664.89C1953.47 663.333 1951.93 661.186 1951.12 658.734L1950.12 656.434C1949.28 654.611 1948.21 652.897 1946.96 651.329C1945.83 649.729 1944.34 648.425 1942.6 647.529L1941.9 647.029C1941.42 646.681 1940.98 646.278 1940.59 645.829C1940.22 645.411 1939.92 644.939 1939.69 644.429C1939.49 643.961 1939.66 643.577 1940.19 643.276C1941.11 642.908 1942.11 642.755 1943.1 642.829L1945.11 643.129C1946.9 643.608 1948.58 644.422 1950.07 645.529C1952.06 646.88 1953.72 648.656 1954.93 650.729C1956.26 653.232 1958.17 655.378 1960.5 656.986C1962.42 658.341 1964.71 659.09 1967.06 659.137C1968.98 659.162 1970.89 658.995 1972.78 658.637C1974.34 658.317 1975.85 657.814 1977.29 657.137C1977.89 652.664 1979.53 649.227 1982.2 646.826C1978.73 646.487 1975.3 645.885 1971.92 645.026C1968.63 644.122 1965.46 642.81 1962.5 641.121C1959.4 639.434 1956.66 637.156 1954.43 634.415C1952.05 631.264 1950.26 627.701 1949.17 623.904C1947.72 619.033 1947.03 613.969 1947.11 608.888C1946.94 601.242 1949.79 593.836 1955.03 588.266C1952.56 582.194 1952.79 575.387 1955.73 567.846C1957.67 567.246 1960.55 567.696 1964.36 569.197C1967.24 570.266 1970.04 571.555 1972.73 573.052C1974.5 574.119 1975.92 575.019 1976.99 575.752C1989.59 572.283 2002.89 572.283 2015.49 575.752L2019.3 573.352C2022.23 571.596 2025.31 570.12 2028.52 568.946C2032.06 567.613 2034.77 567.246 2036.65 567.846C2039.65 575.387 2039.92 582.194 2037.45 588.266C2042.69 593.836 2045.54 601.242 2045.37 608.888C2045.45 613.985 2044.75 619.064 2043.31 623.953C2042.23 627.764 2040.43 631.332 2038 634.464C2035.74 637.176 2032.98 639.434 2029.88 641.121C2026.91 642.808 2023.74 644.119 2020.45 645.021C2017.08 645.881 2013.64 646.483 2010.18 646.821C2013.65 649.821 2015.39 654.559 2015.39 661.035V682.155C2015.38 682.715 2015.48 683.271 2015.7 683.788C2015.91 684.304 2016.23 684.77 2016.64 685.155C2017.48 685.955 2018.8 686.188 2020.6 685.855C2031.44 682.242 2041.33 676.264 2049.57 668.354C2057.81 660.443 2064.19 650.799 2068.24 640.119C2072.29 629.439 2073.91 617.992 2072.99 606.607C2072.07 595.223 2068.62 584.185 2062.91 574.296V574.29Z" fill="white"/>
<path d="M1923.4 1317C1923.08 1317 1922.84 1316.89 1922.68 1316.68C1922.52 1316.41 1922.52 1316.07 1922.68 1315.64L1943.4 1258.76C1943.56 1258.33 1943.75 1258.04 1943.96 1257.88C1944.17 1257.72 1944.52 1257.64 1945 1257.64H1951.24C1952.25 1257.64 1952.87 1258.04 1953.08 1258.84L1973.56 1315.64L1973.64 1316.04C1973.64 1316.68 1973.35 1317 1972.76 1317H1967.08C1966.44 1317 1966.01 1316.73 1965.8 1316.2L1960.28 1300.68C1960.17 1300.47 1960.07 1300.31 1959.96 1300.2C1959.85 1300.09 1959.64 1300.04 1959.32 1300.04H1936.04C1935.56 1300.04 1935.24 1300.25 1935.08 1300.68L1929.4 1316.28C1929.24 1316.76 1928.84 1317 1928.2 1317H1923.4ZM1957.24 1293.96C1957.83 1293.96 1958.04 1293.61 1957.88 1292.92L1948.28 1266.6C1948.12 1266.12 1947.93 1265.88 1947.72 1265.88C1947.51 1265.88 1947.32 1266.12 1947.16 1266.6L1937.4 1293.08L1937.24 1293.56C1937.24 1293.83 1937.45 1293.96 1937.88 1293.96H1957.24ZM1984.41 1317C1983.66 1317 1983.29 1316.65 1983.29 1315.96V1275.64C1983.29 1274.95 1983.58 1274.6 1984.17 1274.6H1988.97C1989.55 1274.6 1989.85 1274.89 1989.85 1275.48V1280.12C1989.85 1280.71 1990.09 1280.79 1990.57 1280.36C1993.55 1278.01 1996.09 1276.33 1998.17 1275.32C2000.3 1274.31 2002.67 1273.8 2005.29 1273.8C2009.34 1273.8 2012.49 1274.89 2014.73 1277.08C2017.02 1279.27 2018.17 1282.2 2018.17 1285.88V1315.72C2018.17 1316.57 2017.77 1317 2016.97 1317H2012.49C2011.79 1317 2011.45 1316.65 2011.45 1315.96V1287.4C2011.45 1284.73 2010.75 1282.68 2009.37 1281.24C2008.03 1279.8 2005.95 1279.08 2003.13 1279.08C2000.89 1279.08 1998.81 1279.59 1996.89 1280.6C1995.02 1281.56 1992.73 1283.21 1990.01 1285.56V1315.8C1990.01 1316.23 1989.9 1316.55 1989.69 1316.76C1989.53 1316.92 1989.23 1317 1988.81 1317H1984.41ZM2071.83 1311.88C2067.72 1315.83 2062.98 1317.8 2057.59 1317.8C2053.43 1317.8 2050.15 1316.76 2047.75 1314.68C2045.4 1312.55 2044.23 1309.72 2044.23 1306.2C2044.23 1301.93 2046.02 1298.57 2049.59 1296.12C2053.22 1293.67 2058.44 1292.23 2065.27 1291.8L2071.51 1291.32C2072.42 1291.21 2072.87 1290.81 2072.87 1290.12V1287.96C2072.87 1285.08 2071.96 1282.81 2070.15 1281.16C2068.39 1279.45 2065.99 1278.6 2062.95 1278.6C2058.26 1278.6 2054.42 1280.73 2051.43 1285C2051.27 1285.27 2051.11 1285.45 2050.95 1285.56C2050.79 1285.61 2050.58 1285.59 2050.31 1285.48L2045.99 1284.04C2045.72 1283.93 2045.59 1283.75 2045.59 1283.48C2045.59 1283.32 2045.67 1283.08 2045.83 1282.76C2047.43 1279.93 2049.7 1277.75 2052.63 1276.2C2055.62 1274.6 2059.14 1273.8 2063.19 1273.8C2068.42 1273.8 2072.42 1275.03 2075.19 1277.48C2077.96 1279.88 2079.35 1283.21 2079.35 1287.48V1315.8C2079.35 1316.28 2079.27 1316.6 2079.11 1316.76C2078.95 1316.92 2078.66 1317 2078.23 1317H2074.23C2073.59 1317 2073.22 1316.57 2073.11 1315.72L2072.95 1312.04C2072.9 1311.67 2072.76 1311.48 2072.55 1311.48C2072.34 1311.48 2072.1 1311.61 2071.83 1311.88ZM2072.87 1296.68C2072.87 1295.83 2072.47 1295.4 2071.67 1295.4L2066.47 1295.88C2061.51 1296.2 2057.67 1297.16 2054.95 1298.76C2052.28 1300.36 2050.95 1302.57 2050.95 1305.4C2050.95 1307.69 2051.75 1309.51 2053.35 1310.84C2055 1312.17 2057.19 1312.84 2059.91 1312.84C2061.56 1312.84 2063.19 1312.55 2064.79 1311.96C2066.39 1311.37 2067.8 1310.57 2069.03 1309.56C2070.26 1308.6 2071.19 1307.59 2071.83 1306.52C2072.52 1305.4 2072.87 1304.33 2072.87 1303.32V1296.68ZM2092.14 1317C2091.39 1317 2091.02 1316.65 2091.02 1315.96V1275.64C2091.02 1274.95 2091.31 1274.6 2091.9 1274.6H2096.7C2097.29 1274.6 2097.58 1274.89 2097.58 1275.48V1280.12C2097.58 1280.71 2097.82 1280.79 2098.3 1280.36C2101.29 1278.01 2103.82 1276.33 2105.9 1275.32C2108.03 1274.31 2110.41 1273.8 2113.02 1273.8C2117.07 1273.8 2120.22 1274.89 2122.46 1277.08C2124.75 1279.27 2125.9 1282.2 2125.9 1285.88V1315.72C2125.9 1316.57 2125.5 1317 2124.7 1317H2120.22C2119.53 1317 2119.18 1316.65 2119.18 1315.96V1287.4C2119.18 1284.73 2118.49 1282.68 2117.1 1281.24C2115.77 1279.8 2113.69 1279.08 2110.86 1279.08C2108.62 1279.08 2106.54 1279.59 2104.62 1280.6C2102.75 1281.56 2100.46 1283.21 2097.74 1285.56V1315.8C2097.74 1316.23 2097.63 1316.55 2097.42 1316.76C2097.26 1316.92 2096.97 1317 2096.54 1317H2092.14ZM2167.9 1317C2167.15 1317 2166.78 1316.63 2166.78 1315.88V1312.44C2166.78 1311.96 2166.64 1311.72 2166.38 1311.72C2166.22 1311.72 2166 1311.85 2165.74 1312.12C2164.14 1313.72 2162.38 1315.08 2160.46 1316.2C2158.59 1317.27 2156.16 1317.8 2153.18 1317.8C2149.76 1317.8 2146.72 1317 2144.06 1315.4C2141.39 1313.8 2139.28 1311.4 2137.74 1308.2C2136.19 1304.95 2135.42 1301.03 2135.42 1296.44C2135.42 1291.96 2136.22 1288.01 2137.82 1284.6C2139.42 1281.19 2141.63 1278.55 2144.46 1276.68C2147.28 1274.76 2150.51 1273.8 2154.14 1273.8C2156.54 1273.8 2158.62 1274.17 2160.38 1274.92C2162.14 1275.67 2163.79 1276.71 2165.34 1278.04C2165.76 1278.36 2166.06 1278.52 2166.22 1278.52C2166.48 1278.52 2166.62 1278.17 2166.62 1277.48V1258.68C2166.62 1257.99 2166.91 1257.64 2167.5 1257.64H2172.38C2172.96 1257.64 2173.26 1257.99 2173.26 1258.68V1315.72C2173.26 1316.2 2173.18 1316.55 2173.02 1316.76C2172.86 1316.92 2172.51 1317 2171.98 1317H2167.9ZM2166.54 1283.96C2164.83 1282.25 2163.1 1280.97 2161.34 1280.12C2159.63 1279.21 2157.76 1278.76 2155.74 1278.76C2151.68 1278.76 2148.43 1280.28 2145.98 1283.32C2143.52 1286.36 2142.3 1290.65 2142.3 1296.2C2142.3 1301.8 2143.5 1305.99 2145.9 1308.76C2148.35 1311.53 2151.47 1312.92 2155.26 1312.92C2157.34 1312.92 2159.23 1312.44 2160.94 1311.48C2162.7 1310.47 2164.06 1309.21 2165.02 1307.72C2166.03 1306.23 2166.54 1304.73 2166.54 1303.24V1283.96ZM2186.75 1317C2186 1317 2185.63 1316.65 2185.63 1315.96V1275.64C2185.63 1274.95 2185.92 1274.6 2186.51 1274.6H2191.15C2191.74 1274.6 2192.03 1274.89 2192.03 1275.48V1280.68C2192.03 1281 2192.11 1281.19 2192.27 1281.24C2192.48 1281.29 2192.7 1281.19 2192.91 1280.92C2196.96 1276.17 2201.1 1273.8 2205.31 1273.8C2207.18 1273.8 2208.11 1274.15 2208.11 1274.84V1279.64C2208.11 1280.17 2207.87 1280.39 2207.39 1280.28C2206.43 1280.12 2205.23 1280.04 2203.79 1280.04C2202.24 1280.04 2200.56 1280.49 2198.75 1281.4C2196.94 1282.31 2195.42 1283.48 2194.19 1284.92C2192.96 1286.36 2192.35 1287.83 2192.35 1289.32V1315.8C2192.35 1316.6 2191.95 1317 2191.15 1317H2186.75ZM2233 1317.8C2229 1317.8 2225.45 1316.89 2222.36 1315.08C2219.32 1313.21 2216.94 1310.63 2215.24 1307.32C2213.58 1304.01 2212.76 1300.25 2212.76 1296.04C2212.76 1291.72 2213.61 1287.88 2215.32 1284.52C2217.08 1281.16 2219.48 1278.55 2222.52 1276.68C2225.61 1274.76 2229.13 1273.8 2233.08 1273.8C2237.02 1273.8 2240.52 1274.76 2243.56 1276.68C2246.65 1278.55 2249.02 1281.16 2250.68 1284.52C2252.38 1287.88 2253.24 1291.69 2253.24 1295.96C2253.24 1300.17 2252.38 1303.93 2250.68 1307.24C2248.97 1310.55 2246.57 1313.13 2243.48 1315C2240.44 1316.87 2236.94 1317.8 2233 1317.8ZM2233.16 1312.76C2237.32 1312.76 2240.54 1311.27 2242.84 1308.28C2245.18 1305.24 2246.36 1301.08 2246.36 1295.8C2246.36 1290.57 2245.16 1286.44 2242.76 1283.4C2240.41 1280.31 2237.18 1278.76 2233.08 1278.76C2228.92 1278.76 2225.64 1280.31 2223.24 1283.4C2220.84 1286.44 2219.64 1290.57 2219.64 1295.8C2219.64 1301.03 2220.84 1305.16 2223.24 1308.2C2225.64 1311.24 2228.94 1312.76 2233.16 1312.76ZM2270.17 1265.48C2270.17 1266.01 2270.06 1266.41 2269.85 1266.68C2269.64 1266.89 2269.26 1267 2268.73 1267H2264.09C2263.29 1267 2262.89 1266.55 2262.89 1265.64V1258.92C2262.89 1258.07 2263.26 1257.64 2264.01 1257.64H2269.05C2269.37 1257.64 2269.64 1257.75 2269.85 1257.96C2270.06 1258.17 2270.17 1258.47 2270.17 1258.84V1265.48ZM2269.85 1315.64C2269.85 1316.17 2269.74 1316.55 2269.53 1316.76C2269.32 1316.92 2268.94 1317 2268.41 1317H2264.33C2263.85 1317 2263.53 1316.92 2263.37 1316.76C2263.21 1316.6 2263.13 1316.31 2263.13 1315.88V1275.72C2263.13 1274.97 2263.45 1274.6 2264.09 1274.6H2268.97C2269.56 1274.6 2269.85 1274.95 2269.85 1275.64V1315.64ZM2312.43 1317C2311.68 1317 2311.31 1316.63 2311.31 1315.88V1312.44C2311.31 1311.96 2311.18 1311.72 2310.91 1311.72C2310.75 1311.72 2310.54 1311.85 2310.27 1312.12C2308.67 1313.72 2306.91 1315.08 2304.99 1316.2C2303.12 1317.27 2300.7 1317.8 2297.71 1317.8C2294.3 1317.8 2291.26 1317 2288.59 1315.4C2285.92 1313.8 2283.82 1311.4 2282.27 1308.2C2280.72 1304.95 2279.95 1301.03 2279.95 1296.44C2279.95 1291.96 2280.75 1288.01 2282.35 1284.6C2283.95 1281.19 2286.16 1278.55 2288.99 1276.68C2291.82 1274.76 2295.04 1273.8 2298.67 1273.8C2301.07 1273.8 2303.15 1274.17 2304.91 1274.92C2306.67 1275.67 2308.32 1276.71 2309.87 1278.04C2310.3 1278.36 2310.59 1278.52 2310.75 1278.52C2311.02 1278.52 2311.15 1278.17 2311.15 1277.48V1258.68C2311.15 1257.99 2311.44 1257.64 2312.03 1257.64H2316.91C2317.5 1257.64 2317.79 1257.99 2317.79 1258.68V1315.72C2317.79 1316.2 2317.71 1316.55 2317.55 1316.76C2317.39 1316.92 2317.04 1317 2316.51 1317H2312.43ZM2311.07 1283.96C2309.36 1282.25 2307.63 1280.97 2305.87 1280.12C2304.16 1279.21 2302.3 1278.76 2300.27 1278.76C2296.22 1278.76 2292.96 1280.28 2290.51 1283.32C2288.06 1286.36 2286.83 1290.65 2286.83 1296.2C2286.83 1301.8 2288.03 1305.99 2290.43 1308.76C2292.88 1311.53 2296 1312.92 2299.79 1312.92C2301.87 1312.92 2303.76 1312.44 2305.47 1311.48C2307.23 1310.47 2308.59 1309.21 2309.55 1307.72C2310.56 1306.23 2311.07 1304.73 2311.07 1303.24V1283.96ZM2354.15 1315.64C2354.15 1316.17 2354.04 1316.55 2353.83 1316.76C2353.61 1316.92 2353.24 1317 2352.71 1317H2348.55C2348.07 1317 2347.75 1316.92 2347.59 1316.76C2347.43 1316.6 2347.35 1316.31 2347.35 1315.88L2347.43 1258.76C2347.43 1258.01 2347.75 1257.64 2348.39 1257.64H2353.19C2353.83 1257.64 2354.15 1257.99 2354.15 1258.68V1315.64ZM2373.53 1265.48C2373.53 1266.01 2373.42 1266.41 2373.21 1266.68C2372.99 1266.89 2372.62 1267 2372.09 1267H2367.45C2366.65 1267 2366.25 1266.55 2366.25 1265.64V1258.92C2366.25 1258.07 2366.62 1257.64 2367.37 1257.64H2372.41C2372.73 1257.64 2372.99 1257.75 2373.21 1257.96C2373.42 1258.17 2373.53 1258.47 2373.53 1258.84V1265.48ZM2373.21 1315.64C2373.21 1316.17 2373.1 1316.55 2372.89 1316.76C2372.67 1316.92 2372.3 1317 2371.77 1317H2367.69C2367.21 1317 2366.89 1316.92 2366.73 1316.76C2366.57 1316.6 2366.49 1316.31 2366.49 1315.88V1275.72C2366.49 1274.97 2366.81 1274.6 2367.45 1274.6H2372.33C2372.91 1274.6 2373.21 1274.95 2373.21 1275.64V1315.64ZM2386.91 1317C2386.43 1317 2386.08 1316.92 2385.87 1316.76C2385.71 1316.55 2385.63 1316.2 2385.63 1315.72V1258.76C2385.63 1258.01 2385.95 1257.64 2386.59 1257.64H2391.55C2392.08 1257.64 2392.35 1258.01 2392.35 1258.76V1278.36C2392.35 1278.95 2392.48 1279.24 2392.75 1279.24C2392.91 1279.24 2393.18 1279.11 2393.55 1278.84C2397.12 1275.48 2401.39 1273.8 2406.35 1273.8C2411.95 1273.8 2416.19 1275.83 2419.07 1279.88C2422 1283.88 2423.47 1289.11 2423.47 1295.56C2423.47 1302.44 2421.84 1307.88 2418.59 1311.88C2415.39 1315.83 2410.94 1317.8 2405.23 1317.8C2401.98 1317.8 2399.28 1317.16 2397.15 1315.88C2395.02 1314.55 2393.36 1313.08 2392.19 1311.48C2392.03 1311.27 2391.87 1311.16 2391.71 1311.16C2391.5 1311.16 2391.36 1311.35 2391.31 1311.72L2390.91 1315.72C2390.8 1316.2 2390.64 1316.55 2390.43 1316.76C2390.27 1316.92 2389.95 1317 2389.47 1317H2386.91ZM2392.35 1302.68C2392.35 1304.55 2392.88 1306.28 2393.95 1307.88C2395.07 1309.43 2396.51 1310.68 2398.27 1311.64C2400.03 1312.55 2401.87 1313 2403.79 1313C2407.63 1313 2410.7 1311.56 2412.99 1308.68C2415.34 1305.8 2416.51 1301.48 2416.51 1295.72C2416.51 1290.28 2415.47 1286.09 2413.39 1283.16C2411.31 1280.17 2408.3 1278.68 2404.35 1278.68C2401.95 1278.68 2399.71 1279.21 2397.63 1280.28C2395.6 1281.35 2393.84 1282.79 2392.35 1284.6V1302.68ZM2434.64 1317C2433.89 1317 2433.52 1316.65 2433.52 1315.96V1275.64C2433.52 1274.95 2433.81 1274.6 2434.4 1274.6H2439.04C2439.63 1274.6 2439.92 1274.89 2439.92 1275.48V1280.68C2439.92 1281 2440 1281.19 2440.16 1281.24C2440.37 1281.29 2440.59 1281.19 2440.8 1280.92C2444.85 1276.17 2448.99 1273.8 2453.2 1273.8C2455.07 1273.8 2456 1274.15 2456 1274.84V1279.64C2456 1280.17 2455.76 1280.39 2455.28 1280.28C2454.32 1280.12 2453.12 1280.04 2451.68 1280.04C2450.13 1280.04 2448.45 1280.49 2446.64 1281.4C2444.83 1282.31 2443.31 1283.48 2442.08 1284.92C2440.85 1286.36 2440.24 1287.83 2440.24 1289.32V1315.8C2440.24 1316.6 2439.84 1317 2439.04 1317H2434.64ZM2488.55 1311.88C2484.44 1315.83 2479.7 1317.8 2474.31 1317.8C2470.15 1317.8 2466.87 1316.76 2464.47 1314.68C2462.12 1312.55 2460.95 1309.72 2460.95 1306.2C2460.95 1301.93 2462.74 1298.57 2466.31 1296.12C2469.94 1293.67 2475.16 1292.23 2481.99 1291.8L2488.23 1291.32C2489.14 1291.21 2489.59 1290.81 2489.59 1290.12V1287.96C2489.59 1285.08 2488.68 1282.81 2486.87 1281.16C2485.11 1279.45 2482.71 1278.6 2479.67 1278.6C2474.98 1278.6 2471.14 1280.73 2468.15 1285C2467.99 1285.27 2467.83 1285.45 2467.67 1285.56C2467.51 1285.61 2467.3 1285.59 2467.03 1285.48L2462.71 1284.04C2462.44 1283.93 2462.31 1283.75 2462.31 1283.48C2462.31 1283.32 2462.39 1283.08 2462.55 1282.76C2464.15 1279.93 2466.42 1277.75 2469.35 1276.2C2472.34 1274.6 2475.86 1273.8 2479.91 1273.8C2485.14 1273.8 2489.14 1275.03 2491.91 1277.48C2494.68 1279.88 2496.07 1283.21 2496.07 1287.48V1315.8C2496.07 1316.28 2495.99 1316.6 2495.83 1316.76C2495.67 1316.92 2495.38 1317 2494.95 1317H2490.95C2490.31 1317 2489.94 1316.57 2489.83 1315.72L2489.67 1312.04C2489.62 1311.67 2489.48 1311.48 2489.27 1311.48C2489.06 1311.48 2488.82 1311.61 2488.55 1311.88ZM2489.59 1296.68C2489.59 1295.83 2489.19 1295.4 2488.39 1295.4L2483.19 1295.88C2478.23 1296.2 2474.39 1297.16 2471.67 1298.76C2469 1300.36 2467.67 1302.57 2467.67 1305.4C2467.67 1307.69 2468.47 1309.51 2470.07 1310.84C2471.72 1312.17 2473.91 1312.84 2476.63 1312.84C2478.28 1312.84 2479.91 1312.55 2481.51 1311.96C2483.11 1311.37 2484.52 1310.57 2485.75 1309.56C2486.98 1308.6 2487.91 1307.59 2488.55 1306.52C2489.24 1305.4 2489.59 1304.33 2489.59 1303.32V1296.68ZM2508.86 1317C2508.11 1317 2507.74 1316.65 2507.74 1315.96V1275.64C2507.74 1274.95 2508.03 1274.6 2508.62 1274.6H2513.26C2513.84 1274.6 2514.14 1274.89 2514.14 1275.48V1280.68C2514.14 1281 2514.22 1281.19 2514.38 1281.24C2514.59 1281.29 2514.8 1281.19 2515.02 1280.92C2519.07 1276.17 2523.2 1273.8 2527.42 1273.8C2529.28 1273.8 2530.22 1274.15 2530.22 1274.84V1279.64C2530.22 1280.17 2529.98 1280.39 2529.5 1280.28C2528.54 1280.12 2527.34 1280.04 2525.9 1280.04C2524.35 1280.04 2522.67 1280.49 2520.86 1281.4C2519.04 1282.31 2517.52 1283.48 2516.3 1284.92C2515.07 1286.36 2514.46 1287.83 2514.46 1289.32V1315.8C2514.46 1316.6 2514.06 1317 2513.26 1317H2508.86ZM2540.68 1330.2C2538.82 1330.2 2537.54 1330.15 2536.84 1330.04C2536.15 1329.93 2535.8 1329.64 2535.8 1329.16V1326.04C2535.8 1325.67 2535.94 1325.4 2536.2 1325.24C2536.52 1325.08 2537.14 1325 2538.04 1325H2543.08C2544.36 1325 2545.54 1324.52 2546.6 1323.56C2547.67 1322.65 2548.5 1321.51 2549.08 1320.12C2549.72 1318.73 2550.04 1317.4 2550.04 1316.12C2550.04 1315.32 2549.94 1314.68 2549.72 1314.2L2534.44 1275.96C2534.39 1275.85 2534.36 1275.69 2534.36 1275.48C2534.36 1274.89 2534.68 1274.6 2535.32 1274.6H2540.28C2540.87 1274.6 2541.3 1274.89 2541.56 1275.48L2553.48 1306.52C2553.64 1307 2553.86 1307.24 2554.12 1307.24C2554.44 1307.24 2554.71 1306.92 2554.92 1306.28L2566.68 1275.48C2566.95 1274.89 2567.32 1274.6 2567.8 1274.6H2571.56C2571.88 1274.6 2572.12 1274.73 2572.28 1275C2572.44 1275.21 2572.47 1275.45 2572.36 1275.72L2554.76 1320.76C2553.32 1324.39 2551.54 1326.87 2549.4 1328.2C2547.27 1329.53 2544.36 1330.2 2540.68 1330.2ZM2652.21 1274.6C2652.53 1274.6 2652.77 1274.73 2652.93 1275C2653.09 1275.21 2653.12 1275.45 2653.01 1275.72L2640.77 1315.96C2640.56 1316.65 2640.05 1317 2639.25 1317H2635.41C2634.51 1317 2633.95 1316.65 2633.73 1315.96L2624.21 1286.04C2624.05 1285.56 2623.87 1285.32 2623.65 1285.32C2623.55 1285.32 2623.41 1285.56 2623.25 1286.04L2614.21 1315.96C2614 1316.65 2613.49 1317 2612.69 1317H2608.61C2607.71 1317 2607.15 1316.65 2606.93 1315.96L2594.37 1275.8C2594.32 1275.69 2594.29 1275.56 2594.29 1275.4C2594.29 1274.87 2594.61 1274.6 2595.25 1274.6H2599.97C2600.56 1274.6 2600.99 1274.89 2601.25 1275.48L2610.77 1306.6C2610.93 1307.13 2611.12 1307.4 2611.33 1307.4C2611.49 1307.4 2611.71 1307.11 2611.97 1306.52L2621.41 1275.4C2621.57 1274.87 2621.95 1274.6 2622.53 1274.6H2626.29C2626.93 1274.6 2627.33 1274.89 2627.49 1275.48L2637.33 1306.6C2637.49 1307.13 2637.68 1307.4 2637.89 1307.4C2638.11 1307.4 2638.29 1307.11 2638.45 1306.52L2647.65 1275.48C2647.92 1274.89 2648.37 1274.6 2649.01 1274.6H2652.21ZM2662.76 1317C2662.07 1317 2661.72 1316.65 2661.72 1315.96V1258.68C2661.72 1257.99 2662.02 1257.64 2662.6 1257.64H2667.32C2667.91 1257.64 2668.2 1257.96 2668.2 1258.6V1279.96C2668.2 1280.55 2668.44 1280.63 2668.92 1280.2C2671.96 1277.85 2674.55 1276.2 2676.68 1275.24C2678.82 1274.28 2681.16 1273.8 2683.72 1273.8C2687.83 1273.8 2690.98 1274.89 2693.16 1277.08C2695.4 1279.27 2696.52 1282.23 2696.52 1285.96V1315.72C2696.52 1316.57 2696.12 1317 2695.32 1317H2690.84C2690.15 1317 2689.8 1316.65 2689.8 1315.96V1287.4C2689.8 1284.73 2689.11 1282.68 2687.72 1281.24C2686.39 1279.8 2684.31 1279.08 2681.48 1279.08C2679.24 1279.08 2677.19 1279.59 2675.32 1280.6C2673.51 1281.56 2671.22 1283.21 2668.44 1285.56V1315.8C2668.44 1316.6 2668.02 1317 2667.16 1317H2662.76ZM2715.4 1265.48C2715.4 1266.01 2715.3 1266.41 2715.08 1266.68C2714.87 1266.89 2714.5 1267 2713.96 1267H2709.32C2708.52 1267 2708.12 1266.55 2708.12 1265.64V1258.92C2708.12 1258.07 2708.5 1257.64 2709.24 1257.64H2714.28C2714.6 1257.64 2714.87 1257.75 2715.08 1257.96C2715.3 1258.17 2715.4 1258.47 2715.4 1258.84V1265.48ZM2715.08 1315.64C2715.08 1316.17 2714.98 1316.55 2714.76 1316.76C2714.55 1316.92 2714.18 1317 2713.64 1317H2709.56C2709.08 1317 2708.76 1316.92 2708.6 1316.76C2708.44 1316.6 2708.36 1316.31 2708.36 1315.88V1275.72C2708.36 1274.97 2708.68 1274.6 2709.32 1274.6H2714.2C2714.79 1274.6 2715.08 1274.95 2715.08 1275.64V1315.64ZM2745.1 1273.8C2749 1273.8 2752.3 1274.71 2755.02 1276.52C2757.8 1278.33 2760.01 1280.73 2761.66 1283.72L2761.82 1284.36C2761.82 1284.68 2761.64 1284.87 2761.26 1284.92L2756.86 1285.96L2756.62 1286.04C2756.36 1286.04 2756.09 1285.83 2755.82 1285.4C2754.12 1283.11 2752.46 1281.43 2750.86 1280.36C2749.32 1279.29 2747.53 1278.76 2745.5 1278.76C2741.34 1278.76 2738.04 1280.31 2735.58 1283.4C2733.13 1286.44 2731.9 1290.57 2731.9 1295.8C2731.9 1301.08 2733.13 1305.24 2735.58 1308.28C2738.09 1311.32 2741.45 1312.84 2745.66 1312.84C2748.17 1312.84 2750.36 1312.23 2752.22 1311C2754.14 1309.77 2755.88 1307.88 2757.42 1305.32C2757.58 1305.05 2757.74 1304.92 2757.9 1304.92C2758.06 1304.87 2758.25 1304.89 2758.46 1305L2761.9 1306.28C2762.28 1306.44 2762.38 1306.79 2762.22 1307.32C2760.57 1310.41 2758.3 1312.95 2755.42 1314.92C2752.54 1316.84 2749.1 1317.8 2745.1 1317.8C2741.21 1317.8 2737.74 1316.89 2734.7 1315.08C2731.66 1313.21 2729.29 1310.63 2727.58 1307.32C2725.88 1304.01 2725.02 1300.23 2725.02 1295.96C2725.02 1291.69 2725.88 1287.88 2727.58 1284.52C2729.29 1281.11 2731.66 1278.47 2734.7 1276.6C2737.8 1274.73 2741.26 1273.8 2745.1 1273.8ZM2771.98 1317C2771.29 1317 2770.94 1316.65 2770.94 1315.96V1258.68C2770.94 1257.99 2771.24 1257.64 2771.82 1257.64H2776.54C2777.13 1257.64 2777.42 1257.96 2777.42 1258.6V1279.96C2777.42 1280.55 2777.66 1280.63 2778.14 1280.2C2781.18 1277.85 2783.77 1276.2 2785.9 1275.24C2788.04 1274.28 2790.38 1273.8 2792.94 1273.8C2797.05 1273.8 2800.2 1274.89 2802.38 1277.08C2804.62 1279.27 2805.74 1282.23 2805.74 1285.96V1315.72C2805.74 1316.57 2805.34 1317 2804.54 1317H2800.06C2799.37 1317 2799.02 1316.65 2799.02 1315.96V1287.4C2799.02 1284.73 2798.33 1282.68 2796.94 1281.24C2795.61 1279.8 2793.53 1279.08 2790.7 1279.08C2788.46 1279.08 2786.41 1279.59 2784.54 1280.6C2782.73 1281.56 2780.44 1283.21 2777.66 1285.56V1315.8C2777.66 1316.6 2777.24 1317 2776.38 1317H2771.98ZM2841.57 1315.64C2841.57 1316.17 2841.46 1316.55 2841.25 1316.76C2841.04 1316.92 2840.66 1317 2840.13 1317H2835.97C2835.49 1317 2835.17 1316.92 2835.01 1316.76C2834.85 1316.6 2834.77 1316.31 2834.77 1315.88L2834.85 1258.76C2834.85 1258.01 2835.17 1257.64 2835.81 1257.64H2840.61C2841.25 1257.64 2841.57 1257.99 2841.57 1258.68V1315.64ZM2858.39 1298.44C2858.39 1301 2859 1303.37 2860.23 1305.56C2861.51 1307.75 2863.22 1309.48 2865.35 1310.76C2867.48 1312.04 2869.83 1312.68 2872.39 1312.68C2877.72 1312.68 2881.88 1310.47 2884.87 1306.04C2885.08 1305.83 2885.27 1305.72 2885.43 1305.72C2885.59 1305.67 2885.78 1305.69 2885.99 1305.8L2889.35 1307.48C2889.78 1307.75 2889.83 1308.12 2889.51 1308.6C2887.43 1311.8 2884.95 1314.15 2882.07 1315.64C2879.19 1317.08 2875.75 1317.8 2871.75 1317.8C2867.86 1317.8 2864.36 1316.89 2861.27 1315.08C2858.18 1313.27 2855.75 1310.73 2853.99 1307.48C2852.28 1304.17 2851.43 1300.41 2851.43 1296.2C2851.43 1291.67 2852.31 1287.72 2854.07 1284.36C2855.83 1280.95 2858.23 1278.33 2861.27 1276.52C2864.36 1274.71 2867.83 1273.8 2871.67 1273.8C2875.51 1273.8 2878.87 1274.65 2881.75 1276.36C2884.68 1278.07 2886.95 1280.57 2888.55 1283.88C2890.15 1287.13 2890.95 1291 2890.95 1295.48V1295.8C2890.95 1296.28 2890.87 1296.65 2890.71 1296.92C2890.55 1297.13 2890.23 1297.24 2889.75 1297.24H2859.11C2858.63 1297.24 2858.39 1297.64 2858.39 1298.44ZM2882.87 1292.84C2883.46 1292.84 2883.83 1292.79 2883.99 1292.68C2884.15 1292.52 2884.23 1292.2 2884.23 1291.72C2884.23 1289.37 2883.72 1287.21 2882.71 1285.24C2881.75 1283.21 2880.31 1281.61 2878.39 1280.44C2876.52 1279.21 2874.34 1278.6 2871.83 1278.6C2869.11 1278.6 2866.74 1279.29 2864.71 1280.68C2862.68 1282.01 2861.14 1283.77 2860.07 1285.96C2859 1288.09 2858.5 1290.39 2858.55 1292.84H2882.87ZM2934.87 1274.6C2935.25 1274.6 2935.49 1274.73 2935.59 1275C2935.75 1275.21 2935.78 1275.45 2935.67 1275.72L2919.43 1315.8C2919.17 1316.6 2918.55 1317 2917.59 1317H2914.71C2913.7 1317 2913.03 1316.63 2912.71 1315.88L2896.55 1275.8C2896.5 1275.69 2896.47 1275.56 2896.47 1275.4C2896.47 1274.87 2896.79 1274.6 2897.43 1274.6H2902.39C2902.98 1274.6 2903.41 1274.89 2903.67 1275.48L2916.23 1306.92C2916.39 1307.45 2916.58 1307.72 2916.79 1307.72C2917.01 1307.72 2917.25 1307.43 2917.51 1306.84L2929.99 1275.48C2930.15 1274.89 2930.55 1274.6 2931.19 1274.6H2934.87ZM2946.2 1298.44C2946.2 1301 2946.82 1303.37 2948.04 1305.56C2949.32 1307.75 2951.03 1309.48 2953.16 1310.76C2955.3 1312.04 2957.64 1312.68 2960.2 1312.68C2965.54 1312.68 2969.7 1310.47 2972.68 1306.04C2972.9 1305.83 2973.08 1305.72 2973.24 1305.72C2973.4 1305.67 2973.59 1305.69 2973.8 1305.8L2977.16 1307.48C2977.59 1307.75 2977.64 1308.12 2977.32 1308.6C2975.24 1311.8 2972.76 1314.15 2969.88 1315.64C2967 1317.08 2963.56 1317.8 2959.56 1317.8C2955.67 1317.8 2952.18 1316.89 2949.08 1315.08C2945.99 1313.27 2943.56 1310.73 2941.8 1307.48C2940.1 1304.17 2939.24 1300.41 2939.24 1296.2C2939.24 1291.67 2940.12 1287.72 2941.88 1284.36C2943.64 1280.95 2946.04 1278.33 2949.08 1276.52C2952.18 1274.71 2955.64 1273.8 2959.48 1273.8C2963.32 1273.8 2966.68 1274.65 2969.56 1276.36C2972.5 1278.07 2974.76 1280.57 2976.36 1283.88C2977.96 1287.13 2978.76 1291 2978.76 1295.48V1295.8C2978.76 1296.28 2978.68 1296.65 2978.52 1296.92C2978.36 1297.13 2978.04 1297.24 2977.56 1297.24H2946.92C2946.44 1297.24 2946.2 1297.64 2946.2 1298.44ZM2970.68 1292.84C2971.27 1292.84 2971.64 1292.79 2971.8 1292.68C2971.96 1292.52 2972.04 1292.2 2972.04 1291.72C2972.04 1289.37 2971.54 1287.21 2970.52 1285.24C2969.56 1283.21 2968.12 1281.61 2966.2 1280.44C2964.34 1279.21 2962.15 1278.6 2959.64 1278.6C2956.92 1278.6 2954.55 1279.29 2952.52 1280.68C2950.5 1282.01 2948.95 1283.77 2947.88 1285.96C2946.82 1288.09 2946.31 1290.39 2946.36 1292.84H2970.68ZM2989.33 1317C2988.58 1317 2988.21 1316.65 2988.21 1315.96V1275.64C2988.21 1274.95 2988.5 1274.6 2989.09 1274.6H2993.73C2994.31 1274.6 2994.61 1274.89 2994.61 1275.48V1280.68C2994.61 1281 2994.69 1281.19 2994.85 1281.24C2995.06 1281.29 2995.27 1281.19 2995.49 1280.92C2999.54 1276.17 3003.67 1273.8 3007.89 1273.8C3009.75 1273.8 3010.69 1274.15 3010.69 1274.84V1279.64C3010.69 1280.17 3010.45 1280.39 3009.97 1280.28C3009.01 1280.12 3007.81 1280.04 3006.37 1280.04C3004.82 1280.04 3003.14 1280.49 3001.33 1281.4C2999.51 1282.31 2997.99 1283.48 2996.77 1284.92C2995.54 1286.36 2994.93 1287.83 2994.93 1289.32V1315.8C2994.93 1316.6 2994.53 1317 2993.73 1317H2989.33ZM3043.24 1311.88C3039.13 1315.83 3034.38 1317.8 3029 1317.8C3024.84 1317.8 3021.56 1316.76 3019.16 1314.68C3016.81 1312.55 3015.64 1309.72 3015.64 1306.2C3015.64 1301.93 3017.42 1298.57 3021 1296.12C3024.62 1293.67 3029.85 1292.23 3036.68 1291.8L3042.92 1291.32C3043.82 1291.21 3044.28 1290.81 3044.28 1290.12V1287.96C3044.28 1285.08 3043.37 1282.81 3041.56 1281.16C3039.8 1279.45 3037.4 1278.6 3034.36 1278.6C3029.66 1278.6 3025.82 1280.73 3022.84 1285C3022.68 1285.27 3022.52 1285.45 3022.36 1285.56C3022.2 1285.61 3021.98 1285.59 3021.72 1285.48L3017.4 1284.04C3017.13 1283.93 3017 1283.75 3017 1283.48C3017 1283.32 3017.08 1283.08 3017.24 1282.76C3018.84 1279.93 3021.1 1277.75 3024.04 1276.2C3027.02 1274.6 3030.54 1273.8 3034.6 1273.8C3039.82 1273.8 3043.82 1275.03 3046.6 1277.48C3049.37 1279.88 3050.76 1283.21 3050.76 1287.48V1315.8C3050.76 1316.28 3050.68 1316.6 3050.52 1316.76C3050.36 1316.92 3050.06 1317 3049.64 1317H3045.64C3045 1317 3044.62 1316.57 3044.52 1315.72L3044.36 1312.04C3044.3 1311.67 3044.17 1311.48 3043.96 1311.48C3043.74 1311.48 3043.5 1311.61 3043.24 1311.88ZM3044.28 1296.68C3044.28 1295.83 3043.88 1295.4 3043.08 1295.4L3037.88 1295.88C3032.92 1296.2 3029.08 1297.16 3026.36 1298.76C3023.69 1300.36 3022.36 1302.57 3022.36 1305.4C3022.36 1307.69 3023.16 1309.51 3024.76 1310.84C3026.41 1312.17 3028.6 1312.84 3031.32 1312.84C3032.97 1312.84 3034.6 1312.55 3036.2 1311.96C3037.8 1311.37 3039.21 1310.57 3040.44 1309.56C3041.66 1308.6 3042.6 1307.59 3043.24 1306.52C3043.93 1305.4 3044.28 1304.33 3044.28 1303.32V1296.68ZM3100.75 1273.88C3101.76 1273.88 3102.27 1274.31 3102.27 1275.16V1277.96C3102.27 1278.49 3102.13 1278.89 3101.87 1279.16C3101.65 1279.37 3101.25 1279.45 3100.67 1279.4C3098.91 1279.4 3097.52 1279.64 3096.51 1280.12C3095.23 1280.65 3094.69 1281.27 3094.91 1281.96C3094.96 1282.17 3095.12 1282.57 3095.39 1283.16C3095.65 1283.75 3095.87 1284.41 3096.03 1285.16C3096.19 1285.85 3096.27 1286.6 3096.27 1287.4C3096.27 1291.19 3094.77 1294.28 3091.79 1296.68C3088.85 1299.08 3084.56 1300.28 3078.91 1300.28C3075.12 1300.28 3072.4 1300.6 3070.75 1301.24C3069.09 1301.88 3068.27 1302.71 3068.27 1303.72C3068.27 1304.52 3068.83 1305.13 3069.95 1305.56C3071.07 1305.93 3072.93 1306.2 3075.55 1306.36L3085.87 1306.92C3090.45 1307.19 3093.87 1308.28 3096.11 1310.2C3098.35 1312.12 3099.47 1314.73 3099.47 1318.04C3099.47 1322.09 3097.68 1325.27 3094.11 1327.56C3090.59 1329.85 3085.55 1331 3078.99 1331C3072.21 1331 3067.04 1330.01 3063.47 1328.04C3059.95 1326.12 3058.19 1323.35 3058.19 1319.72C3058.19 1316.15 3060.69 1313.13 3065.71 1310.68C3066.29 1310.41 3066.29 1310.12 3065.71 1309.8C3063.25 1308.73 3062.03 1307.16 3062.03 1305.08C3062.03 1303.91 3062.56 1302.79 3063.63 1301.72C3064.75 1300.65 3066.32 1299.77 3068.35 1299.08C3068.61 1299.03 3068.75 1298.89 3068.75 1298.68C3068.75 1298.41 3068.61 1298.23 3068.35 1298.12C3066 1296.89 3064.27 1295.43 3063.15 1293.72C3062.03 1291.96 3061.47 1289.85 3061.47 1287.4C3061.47 1283.24 3063.04 1279.96 3066.19 1277.56C3069.33 1275.16 3073.79 1273.96 3079.55 1273.96C3084.61 1273.96 3088.61 1275.16 3091.55 1277.56C3091.92 1277.83 3092.19 1277.96 3092.35 1277.96C3092.56 1277.96 3092.85 1277.83 3093.23 1277.56C3094.24 1276.55 3095.41 1275.69 3096.75 1275C3098.13 1274.25 3099.47 1273.88 3100.75 1273.88ZM3078.91 1296.04C3082.59 1296.04 3085.33 1295.29 3087.15 1293.8C3089.01 1292.31 3089.95 1290.15 3089.95 1287.32C3089.95 1284.44 3089.01 1282.2 3087.15 1280.6C3085.28 1279 3082.53 1278.2 3078.91 1278.2C3075.39 1278.2 3072.64 1279.03 3070.67 1280.68C3068.69 1282.28 3067.71 1284.49 3067.71 1287.32C3067.71 1290.09 3068.67 1292.25 3070.59 1293.8C3072.56 1295.29 3075.33 1296.04 3078.91 1296.04ZM3071.87 1311.8C3070.91 1311.75 3069.81 1312.04 3068.59 1312.68C3067.36 1313.27 3066.32 1314.12 3065.47 1315.24C3064.61 1316.36 3064.19 1317.59 3064.19 1318.92C3064.19 1321.48 3065.49 1323.43 3068.11 1324.76C3070.72 1326.15 3074.59 1326.84 3079.71 1326.84C3088.72 1326.84 3093.23 1324.17 3093.23 1318.84C3093.23 1316.97 3092.59 1315.51 3091.31 1314.44C3090.08 1313.37 3088.05 1312.76 3085.23 1312.6L3071.87 1311.8ZM3114.41 1298.44C3114.41 1301 3115.02 1303.37 3116.25 1305.56C3117.53 1307.75 3119.23 1309.48 3121.37 1310.76C3123.5 1312.04 3125.85 1312.68 3128.41 1312.68C3133.74 1312.68 3137.9 1310.47 3140.89 1306.04C3141.1 1305.83 3141.29 1305.72 3141.45 1305.72C3141.61 1305.67 3141.79 1305.69 3142.01 1305.8L3145.37 1307.48C3145.79 1307.75 3145.85 1308.12 3145.53 1308.6C3143.45 1311.8 3140.97 1314.15 3138.09 1315.64C3135.21 1317.08 3131.77 1317.8 3127.77 1317.8C3123.87 1317.8 3120.38 1316.89 3117.29 1315.08C3114.19 1313.27 3111.77 1310.73 3110.01 1307.48C3108.3 1304.17 3107.45 1300.41 3107.45 1296.2C3107.45 1291.67 3108.33 1287.72 3110.09 1284.36C3111.85 1280.95 3114.25 1278.33 3117.29 1276.52C3120.38 1274.71 3123.85 1273.8 3127.69 1273.8C3131.53 1273.8 3134.89 1274.65 3137.77 1276.36C3140.7 1278.07 3142.97 1280.57 3144.57 1283.88C3146.17 1287.13 3146.97 1291 3146.97 1295.48V1295.8C3146.97 1296.28 3146.89 1296.65 3146.73 1296.92C3146.57 1297.13 3146.25 1297.24 3145.77 1297.24H3115.13C3114.65 1297.24 3114.41 1297.64 3114.41 1298.44ZM3138.89 1292.84C3139.47 1292.84 3139.85 1292.79 3140.01 1292.68C3140.17 1292.52 3140.25 1292.2 3140.25 1291.72C3140.25 1289.37 3139.74 1287.21 3138.73 1285.24C3137.77 1283.21 3136.33 1281.61 3134.41 1280.44C3132.54 1279.21 3130.35 1278.6 3127.85 1278.6C3125.13 1278.6 3122.75 1279.29 3120.73 1280.68C3118.7 1282.01 3117.15 1283.77 3116.09 1285.96C3115.02 1288.09 3114.51 1290.39 3114.57 1292.84H3138.89ZM3181.85 1283.96C3180.73 1282.31 3179.18 1281 3177.21 1280.04C3175.29 1279.03 3173.05 1278.52 3170.49 1278.52C3167.56 1278.52 3165.16 1279.16 3163.29 1280.44C3161.42 1281.67 3160.49 1283.29 3160.49 1285.32C3160.49 1286.55 3160.94 1287.67 3161.85 1288.68C3162.81 1289.64 3164.52 1290.49 3166.97 1291.24L3177.13 1294.28C3180.65 1295.24 3183.26 1296.68 3184.97 1298.6C3186.68 1300.47 3187.53 1302.71 3187.53 1305.32C3187.53 1307.77 3186.78 1309.96 3185.29 1311.88C3183.8 1313.75 3181.74 1315.21 3179.13 1316.28C3176.52 1317.29 3173.56 1317.8 3170.25 1317.8C3166.14 1317.8 3162.49 1317 3159.29 1315.4C3156.09 1313.75 3153.82 1311.61 3152.49 1309C3152.33 1308.73 3152.25 1308.52 3152.25 1308.36C3152.25 1308.09 3152.38 1307.88 3152.65 1307.72L3155.77 1305.96C3156.3 1305.64 3156.7 1305.67 3156.97 1306.04C3159.85 1310.63 3164.3 1312.92 3170.33 1312.92C3173.48 1312.87 3176.06 1312.23 3178.09 1311C3180.17 1309.72 3181.21 1308.07 3181.21 1306.04C3181.21 1304.55 3180.6 1303.29 3179.37 1302.28C3178.14 1301.27 3176.14 1300.36 3173.37 1299.56L3165.13 1297.24C3161.24 1296.23 3158.44 1294.81 3156.73 1293C3155.08 1291.19 3154.25 1288.97 3154.25 1286.36C3154.25 1283.91 3154.92 1281.72 3156.25 1279.8C3157.64 1277.88 3159.56 1276.41 3162.01 1275.4C3164.52 1274.33 3167.37 1273.8 3170.57 1273.8C3174.09 1273.8 3177.24 1274.47 3180.01 1275.8C3182.84 1277.13 3185 1278.95 3186.49 1281.24C3186.86 1281.77 3186.84 1282.15 3186.41 1282.36L3183.05 1284.2C3182.84 1284.31 3182.68 1284.36 3182.57 1284.36C3182.36 1284.36 3182.12 1284.23 3181.85 1283.96ZM3260.94 1315.88C3261.04 1316.2 3261.1 1316.39 3261.1 1316.44C3261.1 1316.81 3260.88 1317 3260.46 1317H3253.9C3253.2 1317 3252.72 1316.76 3252.45 1316.28L3234.78 1286.76C3234.67 1286.49 3234.51 1286.36 3234.3 1286.36C3234.14 1286.36 3233.9 1286.52 3233.58 1286.84L3224.38 1297.32C3224 1297.69 3223.82 1298.17 3223.82 1298.76V1315.8C3223.82 1316.23 3223.71 1316.55 3223.5 1316.76C3223.28 1316.92 3222.94 1317 3222.46 1317H3217.34C3216.54 1317 3216.14 1316.65 3216.14 1315.96V1258.6C3216.14 1257.96 3216.43 1257.64 3217.02 1257.64H3222.94C3223.52 1257.64 3223.82 1257.96 3223.82 1258.6V1287.96C3223.82 1288.33 3223.9 1288.52 3224.06 1288.52C3224.11 1288.52 3224.27 1288.39 3224.54 1288.12L3250.78 1258.36C3250.99 1258.09 3251.2 1257.91 3251.42 1257.8C3251.63 1257.69 3251.95 1257.64 3252.38 1257.64H3257.9C3258.32 1257.64 3258.59 1257.77 3258.7 1258.04C3258.86 1258.25 3258.8 1258.49 3258.54 1258.76L3239.9 1279.56C3239.79 1279.77 3239.74 1279.96 3239.74 1280.12C3239.74 1280.23 3239.79 1280.39 3239.9 1280.6L3260.94 1315.88ZM3284.4 1317.8C3280.4 1317.8 3276.86 1316.89 3273.76 1315.08C3270.72 1313.21 3268.35 1310.63 3266.64 1307.32C3264.99 1304.01 3264.16 1300.25 3264.16 1296.04C3264.16 1291.72 3265.02 1287.88 3266.72 1284.52C3268.48 1281.16 3270.88 1278.55 3273.92 1276.68C3277.02 1274.76 3280.54 1273.8 3284.48 1273.8C3288.43 1273.8 3291.92 1274.76 3294.96 1276.68C3298.06 1278.55 3300.43 1281.16 3302.08 1284.52C3303.79 1287.88 3304.64 1291.69 3304.64 1295.96C3304.64 1300.17 3303.79 1303.93 3302.08 1307.24C3300.38 1310.55 3297.98 1313.13 3294.88 1315C3291.84 1316.87 3288.35 1317.8 3284.4 1317.8ZM3284.56 1312.76C3288.72 1312.76 3291.95 1311.27 3294.24 1308.28C3296.59 1305.24 3297.76 1301.08 3297.76 1295.8C3297.76 1290.57 3296.56 1286.44 3294.16 1283.4C3291.82 1280.31 3288.59 1278.76 3284.48 1278.76C3280.32 1278.76 3277.04 1280.31 3274.64 1283.4C3272.24 1286.44 3271.04 1290.57 3271.04 1295.8C3271.04 1301.03 3272.24 1305.16 3274.64 1308.2C3277.04 1311.24 3280.35 1312.76 3284.56 1312.76ZM3325.27 1279.56C3324.84 1279.56 3324.63 1279.8 3324.63 1280.28V1305.64C3324.63 1308.04 3325.03 1309.69 3325.83 1310.6C3326.63 1311.51 3327.93 1311.96 3329.75 1311.96H3335.27C3335.85 1311.96 3336.15 1312.25 3336.15 1312.84L3336.07 1315.56C3336.07 1316.09 3335.75 1316.44 3335.11 1316.6C3333.72 1316.87 3331.21 1317 3327.59 1317C3324.23 1317 3321.77 1316.23 3320.23 1314.68C3318.68 1313.08 3317.91 1310.57 3317.91 1307.16V1280.44C3317.91 1279.85 3317.64 1279.56 3317.11 1279.56H3310.71C3310.12 1279.56 3309.83 1279.29 3309.83 1278.76V1275.4C3309.83 1274.87 3310.09 1274.6 3310.63 1274.6H3317.43C3317.8 1274.6 3317.99 1274.39 3317.99 1273.96L3318.87 1261.24C3318.87 1260.55 3319.16 1260.2 3319.75 1260.2H3323.75C3324.39 1260.2 3324.71 1260.57 3324.71 1261.32V1273.96C3324.71 1274.39 3324.92 1274.6 3325.35 1274.6H3335.43C3336.01 1274.6 3336.31 1274.84 3336.31 1275.32V1278.76C3336.31 1279.29 3336.01 1279.56 3335.43 1279.56H3325.27ZM3351.8 1315.64C3351.8 1316.17 3351.7 1316.55 3351.48 1316.76C3351.27 1316.92 3350.9 1317 3350.36 1317H3346.2C3345.72 1317 3345.4 1316.92 3345.24 1316.76C3345.08 1316.6 3345 1316.31 3345 1315.88L3345.08 1258.76C3345.08 1258.01 3345.4 1257.64 3346.04 1257.64H3350.84C3351.48 1257.64 3351.8 1257.99 3351.8 1258.68V1315.64ZM3371.18 1265.48C3371.18 1266.01 3371.08 1266.41 3370.86 1266.68C3370.65 1266.89 3370.28 1267 3369.74 1267H3365.1C3364.3 1267 3363.9 1266.55 3363.9 1265.64V1258.92C3363.9 1258.07 3364.28 1257.64 3365.02 1257.64H3370.06C3370.38 1257.64 3370.65 1257.75 3370.86 1257.96C3371.08 1258.17 3371.18 1258.47 3371.18 1258.84V1265.48ZM3370.86 1315.64C3370.86 1316.17 3370.76 1316.55 3370.54 1316.76C3370.33 1316.92 3369.96 1317 3369.42 1317H3365.34C3364.86 1317 3364.54 1316.92 3364.38 1316.76C3364.22 1316.6 3364.14 1316.31 3364.14 1315.88V1275.72C3364.14 1274.97 3364.46 1274.6 3365.1 1274.6H3369.98C3370.57 1274.6 3370.86 1274.95 3370.86 1275.64V1315.64ZM3384.41 1317C3383.66 1317 3383.29 1316.65 3383.29 1315.96V1275.64C3383.29 1274.95 3383.58 1274.6 3384.17 1274.6H3388.97C3389.55 1274.6 3389.85 1274.89 3389.85 1275.48V1280.12C3389.85 1280.71 3390.09 1280.79 3390.57 1280.36C3393.55 1278.01 3396.09 1276.33 3398.17 1275.32C3400.3 1274.31 3402.67 1273.8 3405.29 1273.8C3409.34 1273.8 3412.49 1274.89 3414.73 1277.08C3417.02 1279.27 3418.17 1282.2 3418.17 1285.88V1315.72C3418.17 1316.57 3417.77 1317 3416.97 1317H3412.49C3411.79 1317 3411.45 1316.65 3411.45 1315.96V1287.4C3411.45 1284.73 3410.75 1282.68 3409.37 1281.24C3408.03 1279.8 3405.95 1279.08 3403.13 1279.08C3400.89 1279.08 3398.81 1279.59 3396.89 1280.6C3395.02 1281.56 3392.73 1283.21 3390.01 1285.56V1315.8C3390.01 1316.23 3389.9 1316.55 3389.69 1316.76C3389.53 1316.92 3389.23 1317 3388.81 1317H3384.41ZM3464.79 1273.8C3468.68 1273.8 3471.99 1274.71 3474.71 1276.52C3477.48 1278.33 3479.7 1280.73 3481.35 1283.72L3481.51 1284.36C3481.51 1284.68 3481.32 1284.87 3480.95 1284.92L3476.55 1285.96L3476.31 1286.04C3476.04 1286.04 3475.78 1285.83 3475.51 1285.4C3473.8 1283.11 3472.15 1281.43 3470.55 1280.36C3469 1279.29 3467.22 1278.76 3465.19 1278.76C3461.03 1278.76 3457.72 1280.31 3455.27 1283.4C3452.82 1286.44 3451.59 1290.57 3451.59 1295.8C3451.59 1301.08 3452.82 1305.24 3455.27 1308.28C3457.78 1311.32 3461.14 1312.84 3465.35 1312.84C3467.86 1312.84 3470.04 1312.23 3471.91 1311C3473.83 1309.77 3475.56 1307.88 3477.11 1305.32C3477.27 1305.05 3477.43 1304.92 3477.59 1304.92C3477.75 1304.87 3477.94 1304.89 3478.15 1305L3481.59 1306.28C3481.96 1306.44 3482.07 1306.79 3481.91 1307.32C3480.26 1310.41 3477.99 1312.95 3475.11 1314.92C3472.23 1316.84 3468.79 1317.8 3464.79 1317.8C3460.9 1317.8 3457.43 1316.89 3454.39 1315.08C3451.35 1313.21 3448.98 1310.63 3447.27 1307.32C3445.56 1304.01 3444.71 1300.23 3444.71 1295.96C3444.71 1291.69 3445.56 1287.88 3447.27 1284.52C3448.98 1281.11 3451.35 1278.47 3454.39 1276.6C3457.48 1274.73 3460.95 1273.8 3464.79 1273.8ZM3508.31 1317.8C3504.31 1317.8 3500.76 1316.89 3497.67 1315.08C3494.63 1313.21 3492.26 1310.63 3490.55 1307.32C3488.9 1304.01 3488.07 1300.25 3488.07 1296.04C3488.07 1291.72 3488.92 1287.88 3490.63 1284.52C3492.39 1281.16 3494.79 1278.55 3497.83 1276.68C3500.92 1274.76 3504.44 1273.8 3508.39 1273.8C3512.34 1273.8 3515.83 1274.76 3518.87 1276.68C3521.96 1278.55 3524.34 1281.16 3525.99 1284.52C3527.7 1287.88 3528.55 1291.69 3528.55 1295.96C3528.55 1300.17 3527.7 1303.93 3525.99 1307.24C3524.28 1310.55 3521.88 1313.13 3518.79 1315C3515.75 1316.87 3512.26 1317.8 3508.31 1317.8ZM3508.47 1312.76C3512.63 1312.76 3515.86 1311.27 3518.15 1308.28C3520.5 1305.24 3521.67 1301.08 3521.67 1295.8C3521.67 1290.57 3520.47 1286.44 3518.07 1283.4C3515.72 1280.31 3512.5 1278.76 3508.39 1278.76C3504.23 1278.76 3500.95 1280.31 3498.55 1283.4C3496.15 1286.44 3494.95 1290.57 3494.95 1295.8C3494.95 1301.03 3496.15 1305.16 3498.55 1308.2C3500.95 1311.24 3504.26 1312.76 3508.47 1312.76ZM3539.56 1317C3538.81 1317 3538.44 1316.65 3538.44 1315.96V1275.64C3538.44 1274.95 3538.73 1274.6 3539.32 1274.6H3544.12C3544.71 1274.6 3545 1274.89 3545 1275.48V1280.12C3545 1280.71 3545.24 1280.79 3545.72 1280.36C3548.71 1278.01 3551.24 1276.33 3553.32 1275.32C3555.45 1274.31 3557.83 1273.8 3560.44 1273.8C3564.49 1273.8 3567.64 1274.89 3569.88 1277.08C3572.17 1279.27 3573.32 1282.2 3573.32 1285.88V1315.72C3573.32 1316.57 3572.92 1317 3572.12 1317H3567.64C3566.95 1317 3566.6 1316.65 3566.6 1315.96V1287.4C3566.6 1284.73 3565.91 1282.68 3564.52 1281.24C3563.19 1279.8 3561.11 1279.08 3558.28 1279.08C3556.04 1279.08 3553.96 1279.59 3552.04 1280.6C3550.17 1281.56 3547.88 1283.21 3545.16 1285.56V1315.8C3545.16 1316.23 3545.05 1316.55 3544.84 1316.76C3544.68 1316.92 3544.39 1317 3543.96 1317H3539.56ZM3602.76 1273.8C3606.65 1273.8 3609.96 1274.71 3612.68 1276.52C3615.45 1278.33 3617.67 1280.73 3619.32 1283.72L3619.48 1284.36C3619.48 1284.68 3619.29 1284.87 3618.92 1284.92L3614.52 1285.96L3614.28 1286.04C3614.01 1286.04 3613.75 1285.83 3613.48 1285.4C3611.77 1283.11 3610.12 1281.43 3608.52 1280.36C3606.97 1279.29 3605.19 1278.76 3603.16 1278.76C3599 1278.76 3595.69 1280.31 3593.24 1283.4C3590.79 1286.44 3589.56 1290.57 3589.56 1295.8C3589.56 1301.08 3590.79 1305.24 3593.24 1308.28C3595.75 1311.32 3599.11 1312.84 3603.32 1312.84C3605.83 1312.84 3608.01 1312.23 3609.88 1311C3611.8 1309.77 3613.53 1307.88 3615.08 1305.32C3615.24 1305.05 3615.4 1304.92 3615.56 1304.92C3615.72 1304.87 3615.91 1304.89 3616.12 1305L3619.56 1306.28C3619.93 1306.44 3620.04 1306.79 3619.88 1307.32C3618.23 1310.41 3615.96 1312.95 3613.08 1314.92C3610.2 1316.84 3606.76 1317.8 3602.76 1317.8C3598.87 1317.8 3595.4 1316.89 3592.36 1315.08C3589.32 1313.21 3586.95 1310.63 3585.24 1307.32C3583.53 1304.01 3582.68 1300.23 3582.68 1295.96C3582.68 1291.69 3583.53 1287.88 3585.24 1284.52C3586.95 1281.11 3589.32 1278.47 3592.36 1276.6C3595.45 1274.73 3598.92 1273.8 3602.76 1273.8ZM3642.92 1312.52C3645.11 1312.52 3647.24 1311.93 3649.32 1310.76C3651.45 1309.53 3653.61 1307.8 3655.8 1305.56V1275.72C3655.8 1274.97 3656.23 1274.6 3657.08 1274.6H3661.48C3662.23 1274.6 3662.6 1274.97 3662.6 1275.72L3662.44 1315.96C3662.44 1316.65 3662.15 1317 3661.56 1317H3656.92C3656.33 1317 3656.04 1316.71 3656.04 1316.12V1311.4C3656.04 1310.76 3655.8 1310.68 3655.32 1311.16C3652.44 1313.61 3649.88 1315.35 3647.64 1316.36C3645.4 1317.32 3643.11 1317.8 3640.76 1317.8C3637.03 1317.8 3633.96 1316.68 3631.56 1314.44C3629.16 1312.2 3627.96 1309.24 3627.96 1305.56V1275.8C3627.96 1275 3628.36 1274.6 3629.16 1274.6H3633.64C3634.33 1274.6 3634.68 1274.97 3634.68 1275.72V1303.8C3634.68 1306.47 3635.4 1308.6 3636.84 1310.2C3638.33 1311.75 3640.36 1312.52 3642.92 1312.52ZM3675.97 1317C3675.22 1317 3674.85 1316.65 3674.85 1315.96V1275.64C3674.85 1274.95 3675.14 1274.6 3675.73 1274.6H3680.37C3680.95 1274.6 3681.25 1274.89 3681.25 1275.48V1280.68C3681.25 1281 3681.33 1281.19 3681.49 1281.24C3681.7 1281.29 3681.91 1281.19 3682.13 1280.92C3686.18 1276.17 3690.31 1273.8 3694.53 1273.8C3696.39 1273.8 3697.33 1274.15 3697.33 1274.84V1279.64C3697.33 1280.17 3697.09 1280.39 3696.61 1280.28C3695.65 1280.12 3694.45 1280.04 3693.01 1280.04C3691.46 1280.04 3689.78 1280.49 3687.97 1281.4C3686.15 1282.31 3684.63 1283.48 3683.41 1284.92C3682.18 1286.36 3681.57 1287.83 3681.57 1289.32V1315.8C3681.57 1316.6 3681.17 1317 3680.37 1317H3675.97ZM3706.59 1317C3705.85 1317 3705.47 1316.65 3705.47 1315.96V1275.64C3705.47 1274.95 3705.77 1274.6 3706.35 1274.6H3710.99C3711.58 1274.6 3711.87 1274.89 3711.87 1275.48V1280.68C3711.87 1281 3711.95 1281.19 3712.11 1281.24C3712.33 1281.29 3712.54 1281.19 3712.75 1280.92C3716.81 1276.17 3720.94 1273.8 3725.15 1273.8C3727.02 1273.8 3727.95 1274.15 3727.95 1274.84V1279.64C3727.95 1280.17 3727.71 1280.39 3727.23 1280.28C3726.27 1280.12 3725.07 1280.04 3723.63 1280.04C3722.09 1280.04 3720.41 1280.49 3718.59 1281.4C3716.78 1282.31 3715.26 1283.48 3714.03 1284.92C3712.81 1286.36 3712.19 1287.83 3712.19 1289.32V1315.8C3712.19 1316.6 3711.79 1317 3710.99 1317H3706.59ZM3739.56 1298.44C3739.56 1301 3740.18 1303.37 3741.4 1305.56C3742.68 1307.75 3744.39 1309.48 3746.52 1310.76C3748.66 1312.04 3751 1312.68 3753.56 1312.68C3758.9 1312.68 3763.06 1310.47 3766.04 1306.04C3766.26 1305.83 3766.44 1305.72 3766.6 1305.72C3766.76 1305.67 3766.95 1305.69 3767.16 1305.8L3770.52 1307.48C3770.95 1307.75 3771 1308.12 3770.68 1308.6C3768.6 1311.8 3766.12 1314.15 3763.24 1315.64C3760.36 1317.08 3756.92 1317.8 3752.92 1317.8C3749.03 1317.8 3745.54 1316.89 3742.44 1315.08C3739.35 1313.27 3736.92 1310.73 3735.16 1307.48C3733.46 1304.17 3732.6 1300.41 3732.6 1296.2C3732.6 1291.67 3733.48 1287.72 3735.24 1284.36C3737 1280.95 3739.4 1278.33 3742.44 1276.52C3745.54 1274.71 3749 1273.8 3752.84 1273.8C3756.68 1273.8 3760.04 1274.65 3762.92 1276.36C3765.86 1278.07 3768.12 1280.57 3769.72 1283.88C3771.32 1287.13 3772.12 1291 3772.12 1295.48V1295.8C3772.12 1296.28 3772.04 1296.65 3771.88 1296.92C3771.72 1297.13 3771.4 1297.24 3770.92 1297.24H3740.28C3739.8 1297.24 3739.56 1297.64 3739.56 1298.44ZM3764.04 1292.84C3764.63 1292.84 3765 1292.79 3765.16 1292.68C3765.32 1292.52 3765.4 1292.2 3765.4 1291.72C3765.4 1289.37 3764.9 1287.21 3763.88 1285.24C3762.92 1283.21 3761.48 1281.61 3759.56 1280.44C3757.7 1279.21 3755.51 1278.6 3753 1278.6C3750.28 1278.6 3747.91 1279.29 3745.88 1280.68C3743.86 1282.01 3742.31 1283.77 3741.24 1285.96C3740.18 1288.09 3739.67 1290.39 3739.72 1292.84H3764.04ZM3782.69 1317C3781.94 1317 3781.57 1316.65 3781.57 1315.96V1275.64C3781.57 1274.95 3781.86 1274.6 3782.45 1274.6H3787.25C3787.83 1274.6 3788.13 1274.89 3788.13 1275.48V1280.12C3788.13 1280.71 3788.37 1280.79 3788.85 1280.36C3791.83 1278.01 3794.37 1276.33 3796.45 1275.32C3798.58 1274.31 3800.95 1273.8 3803.57 1273.8C3807.62 1273.8 3810.77 1274.89 3813.01 1277.08C3815.3 1279.27 3816.45 1282.2 3816.45 1285.88V1315.72C3816.45 1316.57 3816.05 1317 3815.25 1317H3810.77C3810.07 1317 3809.73 1316.65 3809.73 1315.96V1287.4C3809.73 1284.73 3809.03 1282.68 3807.65 1281.24C3806.31 1279.8 3804.23 1279.08 3801.41 1279.08C3799.17 1279.08 3797.09 1279.59 3795.17 1280.6C3793.3 1281.56 3791.01 1283.21 3788.29 1285.56V1315.8C3788.29 1316.23 3788.18 1316.55 3787.97 1316.76C3787.81 1316.92 3787.51 1317 3787.09 1317H3782.69ZM3845.89 1273.8C3849.78 1273.8 3853.09 1274.71 3855.81 1276.52C3858.58 1278.33 3860.79 1280.73 3862.45 1283.72L3862.61 1284.36C3862.61 1284.68 3862.42 1284.87 3862.05 1284.92L3857.65 1285.96L3857.41 1286.04C3857.14 1286.04 3856.87 1285.83 3856.61 1285.4C3854.9 1283.11 3853.25 1281.43 3851.65 1280.36C3850.1 1279.29 3848.31 1278.76 3846.29 1278.76C3842.13 1278.76 3838.82 1280.31 3836.37 1283.4C3833.91 1286.44 3832.68 1290.57 3832.68 1295.8C3832.68 1301.08 3833.91 1305.24 3836.37 1308.28C3838.87 1311.32 3842.23 1312.84 3846.45 1312.84C3848.95 1312.84 3851.14 1312.23 3853.01 1311C3854.93 1309.77 3856.66 1307.88 3858.21 1305.32C3858.37 1305.05 3858.53 1304.92 3858.69 1304.92C3858.85 1304.87 3859.03 1304.89 3859.25 1305L3862.69 1306.28C3863.06 1306.44 3863.17 1306.79 3863.01 1307.32C3861.35 1310.41 3859.09 1312.95 3856.21 1314.92C3853.33 1316.84 3849.89 1317.8 3845.89 1317.8C3841.99 1317.8 3838.53 1316.89 3835.49 1315.08C3832.45 1313.21 3830.07 1310.63 3828.37 1307.32C3826.66 1304.01 3825.81 1300.23 3825.81 1295.96C3825.81 1291.69 3826.66 1287.88 3828.37 1284.52C3830.07 1281.11 3832.45 1278.47 3835.49 1276.6C3838.58 1274.73 3842.05 1273.8 3845.89 1273.8ZM3873.96 1330.2C3872.1 1330.2 3870.82 1330.15 3870.12 1330.04C3869.43 1329.93 3869.08 1329.64 3869.08 1329.16V1326.04C3869.08 1325.67 3869.22 1325.4 3869.48 1325.24C3869.8 1325.08 3870.42 1325 3871.32 1325H3876.36C3877.64 1325 3878.82 1324.52 3879.88 1323.56C3880.95 1322.65 3881.78 1321.51 3882.36 1320.12C3883 1318.73 3883.32 1317.4 3883.32 1316.12C3883.32 1315.32 3883.22 1314.68 3883 1314.2L3867.72 1275.96C3867.67 1275.85 3867.64 1275.69 3867.64 1275.48C3867.64 1274.89 3867.96 1274.6 3868.6 1274.6H3873.56C3874.15 1274.6 3874.58 1274.89 3874.84 1275.48L3886.76 1306.52C3886.92 1307 3887.14 1307.24 3887.4 1307.24C3887.72 1307.24 3887.99 1306.92 3888.2 1306.28L3899.96 1275.48C3900.23 1274.89 3900.6 1274.6 3901.08 1274.6H3904.84C3905.16 1274.6 3905.4 1274.73 3905.56 1275C3905.72 1275.21 3905.75 1275.45 3905.64 1275.72L3888.04 1320.76C3886.6 1324.39 3884.82 1326.87 3882.68 1328.2C3880.55 1329.53 3877.64 1330.2 3873.96 1330.2ZM1936.36 1376.56C1935.93 1376.56 1935.72 1376.8 1935.72 1377.28V1402.64C1935.72 1405.04 1936.12 1406.69 1936.92 1407.6C1937.72 1408.51 1939.03 1408.96 1940.84 1408.96H1946.36C1946.95 1408.96 1947.24 1409.25 1947.24 1409.84L1947.16 1412.56C1947.16 1413.09 1946.84 1413.44 1946.2 1413.6C1944.81 1413.87 1942.31 1414 1938.68 1414C1935.32 1414 1932.87 1413.23 1931.32 1411.68C1929.77 1410.08 1929 1407.57 1929 1404.16V1377.44C1929 1376.85 1928.73 1376.56 1928.2 1376.56H1921.8C1921.21 1376.56 1920.92 1376.29 1920.92 1375.76V1372.4C1920.92 1371.87 1921.19 1371.6 1921.72 1371.6H1928.52C1928.89 1371.6 1929.08 1371.39 1929.08 1370.96L1929.96 1358.24C1929.96 1357.55 1930.25 1357.2 1930.84 1357.2H1934.84C1935.48 1357.2 1935.8 1357.57 1935.8 1358.32V1370.96C1935.8 1371.39 1936.01 1371.6 1936.44 1371.6H1946.52C1947.11 1371.6 1947.4 1371.84 1947.4 1372.32V1375.76C1947.4 1376.29 1947.11 1376.56 1946.52 1376.56H1936.36ZM1972.84 1414.8C1968.84 1414.8 1965.3 1413.89 1962.2 1412.08C1959.16 1410.21 1956.79 1407.63 1955.08 1404.32C1953.43 1401.01 1952.6 1397.25 1952.6 1393.04C1952.6 1388.72 1953.46 1384.88 1955.16 1381.52C1956.92 1378.16 1959.32 1375.55 1962.36 1373.68C1965.46 1371.76 1968.98 1370.8 1972.92 1370.8C1976.87 1370.8 1980.36 1371.76 1983.4 1373.68C1986.5 1375.55 1988.87 1378.16 1990.52 1381.52C1992.23 1384.88 1993.08 1388.69 1993.08 1392.96C1993.08 1397.17 1992.23 1400.93 1990.52 1404.24C1988.82 1407.55 1986.42 1410.13 1983.32 1412C1980.28 1413.87 1976.79 1414.8 1972.84 1414.8ZM1973 1409.76C1977.16 1409.76 1980.39 1408.27 1982.68 1405.28C1985.03 1402.24 1986.2 1398.08 1986.2 1392.8C1986.2 1387.57 1985 1383.44 1982.6 1380.4C1980.26 1377.31 1977.03 1375.76 1972.92 1375.76C1968.76 1375.76 1965.48 1377.31 1963.08 1380.4C1960.68 1383.44 1959.48 1387.57 1959.48 1392.8C1959.48 1398.03 1960.68 1402.16 1963.08 1405.2C1965.48 1408.24 1968.79 1409.76 1973 1409.76ZM2045.6 1380.96C2044.48 1379.31 2042.93 1378 2040.96 1377.04C2039.04 1376.03 2036.8 1375.52 2034.24 1375.52C2031.31 1375.52 2028.91 1376.16 2027.04 1377.44C2025.17 1378.67 2024.24 1380.29 2024.24 1382.32C2024.24 1383.55 2024.69 1384.67 2025.6 1385.68C2026.56 1386.64 2028.27 1387.49 2030.72 1388.24L2040.88 1391.28C2044.4 1392.24 2047.01 1393.68 2048.72 1395.6C2050.43 1397.47 2051.28 1399.71 2051.28 1402.32C2051.28 1404.77 2050.53 1406.96 2049.04 1408.88C2047.55 1410.75 2045.49 1412.21 2042.88 1413.28C2040.27 1414.29 2037.31 1414.8 2034 1414.8C2029.89 1414.8 2026.24 1414 2023.04 1412.4C2019.84 1410.75 2017.57 1408.61 2016.24 1406C2016.08 1405.73 2016 1405.52 2016 1405.36C2016 1405.09 2016.13 1404.88 2016.4 1404.72L2019.52 1402.96C2020.05 1402.64 2020.45 1402.67 2020.72 1403.04C2023.6 1407.63 2028.05 1409.92 2034.08 1409.92C2037.23 1409.87 2039.81 1409.23 2041.84 1408C2043.92 1406.72 2044.96 1405.07 2044.96 1403.04C2044.96 1401.55 2044.35 1400.29 2043.12 1399.28C2041.89 1398.27 2039.89 1397.36 2037.12 1396.56L2028.88 1394.24C2024.99 1393.23 2022.19 1391.81 2020.48 1390C2018.83 1388.19 2018 1385.97 2018 1383.36C2018 1380.91 2018.67 1378.72 2020 1376.8C2021.39 1374.88 2023.31 1373.41 2025.76 1372.4C2028.27 1371.33 2031.12 1370.8 2034.32 1370.8C2037.84 1370.8 2040.99 1371.47 2043.76 1372.8C2046.59 1374.13 2048.75 1375.95 2050.24 1378.24C2050.61 1378.77 2050.59 1379.15 2050.16 1379.36L2046.8 1381.2C2046.59 1381.31 2046.43 1381.36 2046.32 1381.36C2046.11 1381.36 2045.87 1381.23 2045.6 1380.96ZM2072.3 1376.56C2071.87 1376.56 2071.66 1376.8 2071.66 1377.28V1402.64C2071.66 1405.04 2072.06 1406.69 2072.86 1407.6C2073.66 1408.51 2074.96 1408.96 2076.78 1408.96H2082.3C2082.88 1408.96 2083.18 1409.25 2083.18 1409.84L2083.1 1412.56C2083.1 1413.09 2082.78 1413.44 2082.14 1413.6C2080.75 1413.87 2078.24 1414 2074.62 1414C2071.26 1414 2068.8 1413.23 2067.26 1411.68C2065.71 1410.08 2064.94 1407.57 2064.94 1404.16V1377.44C2064.94 1376.85 2064.67 1376.56 2064.14 1376.56H2057.74C2057.15 1376.56 2056.86 1376.29 2056.86 1375.76V1372.4C2056.86 1371.87 2057.12 1371.6 2057.66 1371.6H2064.46C2064.83 1371.6 2065.02 1371.39 2065.02 1370.96L2065.9 1358.24C2065.9 1357.55 2066.19 1357.2 2066.78 1357.2H2070.78C2071.42 1357.2 2071.74 1357.57 2071.74 1358.32V1370.96C2071.74 1371.39 2071.95 1371.6 2072.38 1371.6H2082.46C2083.04 1371.6 2083.34 1371.84 2083.34 1372.32V1375.76C2083.34 1376.29 2083.04 1376.56 2082.46 1376.56H2072.3ZM2093.16 1414C2092.41 1414 2092.04 1413.65 2092.04 1412.96V1372.64C2092.04 1371.95 2092.33 1371.6 2092.92 1371.6H2097.56C2098.14 1371.6 2098.44 1371.89 2098.44 1372.48V1377.68C2098.44 1378 2098.52 1378.19 2098.68 1378.24C2098.89 1378.29 2099.1 1378.19 2099.32 1377.92C2103.37 1373.17 2107.5 1370.8 2111.72 1370.8C2113.58 1370.8 2114.52 1371.15 2114.52 1371.84V1376.64C2114.52 1377.17 2114.28 1377.39 2113.8 1377.28C2112.84 1377.12 2111.64 1377.04 2110.2 1377.04C2108.65 1377.04 2106.97 1377.49 2105.16 1378.4C2103.34 1379.31 2101.82 1380.48 2100.6 1381.92C2099.37 1383.36 2098.76 1384.83 2098.76 1386.32V1412.8C2098.76 1413.6 2098.36 1414 2097.56 1414H2093.16ZM2126.12 1395.44C2126.12 1398 2126.74 1400.37 2127.96 1402.56C2129.24 1404.75 2130.95 1406.48 2133.08 1407.76C2135.22 1409.04 2137.56 1409.68 2140.12 1409.68C2145.46 1409.68 2149.62 1407.47 2152.6 1403.04C2152.82 1402.83 2153 1402.72 2153.16 1402.72C2153.32 1402.67 2153.51 1402.69 2153.72 1402.8L2157.08 1404.48C2157.51 1404.75 2157.56 1405.12 2157.24 1405.6C2155.16 1408.8 2152.68 1411.15 2149.8 1412.64C2146.92 1414.08 2143.48 1414.8 2139.48 1414.8C2135.59 1414.8 2132.1 1413.89 2129 1412.08C2125.91 1410.27 2123.48 1407.73 2121.72 1404.48C2120.02 1401.17 2119.16 1397.41 2119.16 1393.2C2119.16 1388.67 2120.04 1384.72 2121.8 1381.36C2123.56 1377.95 2125.96 1375.33 2129 1373.52C2132.1 1371.71 2135.56 1370.8 2139.4 1370.8C2143.24 1370.8 2146.6 1371.65 2149.48 1373.36C2152.42 1375.07 2154.68 1377.57 2156.28 1380.88C2157.88 1384.13 2158.68 1388 2158.68 1392.48V1392.8C2158.68 1393.28 2158.6 1393.65 2158.44 1393.92C2158.28 1394.13 2157.96 1394.24 2157.48 1394.24H2126.84C2126.36 1394.24 2126.12 1394.64 2126.12 1395.44ZM2150.6 1389.84C2151.19 1389.84 2151.56 1389.79 2151.72 1389.68C2151.88 1389.52 2151.96 1389.2 2151.96 1388.72C2151.96 1386.37 2151.46 1384.21 2150.44 1382.24C2149.48 1380.21 2148.04 1378.61 2146.12 1377.44C2144.26 1376.21 2142.07 1375.6 2139.56 1375.6C2136.84 1375.6 2134.47 1376.29 2132.44 1377.68C2130.42 1379.01 2128.87 1380.77 2127.8 1382.96C2126.74 1385.09 2126.23 1387.39 2126.28 1389.84H2150.6ZM2192.77 1408.88C2188.66 1412.83 2183.92 1414.8 2178.53 1414.8C2174.37 1414.8 2171.09 1413.76 2168.69 1411.68C2166.34 1409.55 2165.17 1406.72 2165.17 1403.2C2165.17 1398.93 2166.96 1395.57 2170.53 1393.12C2174.16 1390.67 2179.38 1389.23 2186.21 1388.8L2192.45 1388.32C2193.36 1388.21 2193.81 1387.81 2193.81 1387.12V1384.96C2193.81 1382.08 2192.9 1379.81 2191.09 1378.16C2189.33 1376.45 2186.93 1375.6 2183.89 1375.6C2179.2 1375.6 2175.36 1377.73 2172.37 1382C2172.21 1382.27 2172.05 1382.45 2171.89 1382.56C2171.73 1382.61 2171.52 1382.59 2171.25 1382.48L2166.93 1381.04C2166.66 1380.93 2166.53 1380.75 2166.53 1380.48C2166.53 1380.32 2166.61 1380.08 2166.77 1379.76C2168.37 1376.93 2170.64 1374.75 2173.57 1373.2C2176.56 1371.6 2180.08 1370.8 2184.13 1370.8C2189.36 1370.8 2193.36 1372.03 2196.13 1374.48C2198.9 1376.88 2200.29 1380.21 2200.29 1384.48V1412.8C2200.29 1413.28 2200.21 1413.6 2200.05 1413.76C2199.89 1413.92 2199.6 1414 2199.17 1414H2195.17C2194.53 1414 2194.16 1413.57 2194.05 1412.72L2193.89 1409.04C2193.84 1408.67 2193.7 1408.48 2193.49 1408.48C2193.28 1408.48 2193.04 1408.61 2192.77 1408.88ZM2193.81 1393.68C2193.81 1392.83 2193.41 1392.4 2192.61 1392.4L2187.41 1392.88C2182.45 1393.2 2178.61 1394.16 2175.89 1395.76C2173.22 1397.36 2171.89 1399.57 2171.89 1402.4C2171.89 1404.69 2172.69 1406.51 2174.29 1407.84C2175.94 1409.17 2178.13 1409.84 2180.85 1409.84C2182.5 1409.84 2184.13 1409.55 2185.73 1408.96C2187.33 1408.37 2188.74 1407.57 2189.97 1406.56C2191.2 1405.6 2192.13 1404.59 2192.77 1403.52C2193.46 1402.4 2193.81 1401.33 2193.81 1400.32V1393.68ZM2213.08 1414C2212.33 1414 2211.96 1413.65 2211.96 1412.96V1372.64C2211.96 1371.95 2212.25 1371.6 2212.84 1371.6H2217.64C2218.17 1371.6 2218.44 1371.89 2218.44 1372.48V1377.12C2218.44 1377.76 2218.7 1377.84 2219.24 1377.36C2222.12 1375.01 2224.57 1373.33 2226.6 1372.32C2228.62 1371.31 2230.89 1370.8 2233.4 1370.8C2236.38 1370.8 2238.84 1371.47 2240.76 1372.8C2242.73 1374.13 2244.06 1375.81 2244.76 1377.84C2244.86 1378 2244.97 1378.08 2245.08 1378.08C2245.24 1378.08 2245.5 1377.95 2245.88 1377.68C2248.65 1375.33 2251.13 1373.6 2253.32 1372.48C2255.56 1371.36 2257.9 1370.8 2260.36 1370.8C2264.2 1370.8 2267.18 1371.89 2269.32 1374.08C2271.5 1376.27 2272.6 1379.23 2272.6 1382.96V1412.72C2272.6 1413.57 2272.2 1414 2271.4 1414H2266.92C2266.22 1414 2265.88 1413.65 2265.88 1412.96V1384.4C2265.88 1381.73 2265.24 1379.68 2263.96 1378.24C2262.68 1376.8 2260.76 1376.08 2258.2 1376.08C2256.06 1376.08 2254.06 1376.61 2252.2 1377.68C2250.33 1378.69 2248.52 1379.97 2246.76 1381.52C2246.33 1381.95 2246.04 1382.32 2245.88 1382.64C2245.72 1382.96 2245.64 1383.36 2245.64 1383.84V1412.72C2245.64 1413.57 2245.24 1414 2244.44 1414H2239.96C2239.26 1414 2238.92 1413.65 2238.92 1412.96V1384.4C2238.92 1378.85 2236.36 1376.08 2231.24 1376.08C2229.1 1376.08 2227.13 1376.59 2225.32 1377.6C2223.56 1378.56 2221.34 1380.21 2218.68 1382.56V1412.8C2218.68 1413.23 2218.57 1413.55 2218.36 1413.76C2218.2 1413.92 2217.9 1414 2217.48 1414H2213.08ZM2291.26 1412.64C2291.26 1413.17 2291.15 1413.55 2290.94 1413.76C2290.72 1413.92 2290.35 1414 2289.82 1414H2285.66C2285.18 1414 2284.86 1413.92 2284.7 1413.76C2284.54 1413.6 2284.46 1413.31 2284.46 1412.88L2284.54 1355.76C2284.54 1355.01 2284.86 1354.64 2285.5 1354.64H2290.3C2290.94 1354.64 2291.26 1354.99 2291.26 1355.68V1412.64ZM2310.64 1362.48C2310.64 1363.01 2310.53 1363.41 2310.32 1363.68C2310.1 1363.89 2309.73 1364 2309.2 1364H2304.56C2303.76 1364 2303.36 1363.55 2303.36 1362.64V1355.92C2303.36 1355.07 2303.73 1354.64 2304.48 1354.64H2309.52C2309.84 1354.64 2310.1 1354.75 2310.32 1354.96C2310.53 1355.17 2310.64 1355.47 2310.64 1355.84V1362.48ZM2310.32 1412.64C2310.32 1413.17 2310.21 1413.55 2310 1413.76C2309.78 1413.92 2309.41 1414 2308.88 1414H2304.8C2304.32 1414 2304 1413.92 2303.84 1413.76C2303.68 1413.6 2303.6 1413.31 2303.6 1412.88V1372.72C2303.6 1371.97 2303.92 1371.6 2304.56 1371.6H2309.44C2310.02 1371.6 2310.32 1371.95 2310.32 1372.64V1412.64ZM2323.86 1414C2323.11 1414 2322.74 1413.65 2322.74 1412.96V1372.64C2322.74 1371.95 2323.03 1371.6 2323.62 1371.6H2328.42C2329 1371.6 2329.3 1371.89 2329.3 1372.48V1377.12C2329.3 1377.71 2329.54 1377.79 2330.02 1377.36C2333 1375.01 2335.54 1373.33 2337.62 1372.32C2339.75 1371.31 2342.12 1370.8 2344.74 1370.8C2348.79 1370.8 2351.94 1371.89 2354.18 1374.08C2356.47 1376.27 2357.62 1379.2 2357.62 1382.88V1412.72C2357.62 1413.57 2357.22 1414 2356.42 1414H2351.94C2351.24 1414 2350.9 1413.65 2350.9 1412.96V1384.4C2350.9 1381.73 2350.2 1379.68 2348.82 1378.24C2347.48 1376.8 2345.4 1376.08 2342.58 1376.08C2340.34 1376.08 2338.26 1376.59 2336.34 1377.6C2334.47 1378.56 2332.18 1380.21 2329.46 1382.56V1412.8C2329.46 1413.23 2329.35 1413.55 2329.14 1413.76C2328.98 1413.92 2328.68 1414 2328.26 1414H2323.86ZM2373.94 1395.44C2373.94 1398 2374.55 1400.37 2375.78 1402.56C2377.06 1404.75 2378.76 1406.48 2380.9 1407.76C2383.03 1409.04 2385.38 1409.68 2387.94 1409.68C2393.27 1409.68 2397.43 1407.47 2400.42 1403.04C2400.63 1402.83 2400.82 1402.72 2400.98 1402.72C2401.14 1402.67 2401.32 1402.69 2401.54 1402.8L2404.9 1404.48C2405.32 1404.75 2405.38 1405.12 2405.06 1405.6C2402.98 1408.8 2400.5 1411.15 2397.62 1412.64C2394.74 1414.08 2391.3 1414.8 2387.3 1414.8C2383.4 1414.8 2379.91 1413.89 2376.82 1412.08C2373.72 1410.27 2371.3 1407.73 2369.54 1404.48C2367.83 1401.17 2366.98 1397.41 2366.98 1393.2C2366.98 1388.67 2367.86 1384.72 2369.62 1381.36C2371.38 1377.95 2373.78 1375.33 2376.82 1373.52C2379.91 1371.71 2383.38 1370.8 2387.22 1370.8C2391.06 1370.8 2394.42 1371.65 2397.3 1373.36C2400.23 1375.07 2402.5 1377.57 2404.1 1380.88C2405.7 1384.13 2406.5 1388 2406.5 1392.48V1392.8C2406.5 1393.28 2406.42 1393.65 2406.26 1393.92C2406.1 1394.13 2405.78 1394.24 2405.3 1394.24H2374.66C2374.18 1394.24 2373.94 1394.64 2373.94 1395.44ZM2398.42 1389.84C2399 1389.84 2399.38 1389.79 2399.54 1389.68C2399.7 1389.52 2399.78 1389.2 2399.78 1388.72C2399.78 1386.37 2399.27 1384.21 2398.26 1382.24C2397.3 1380.21 2395.86 1378.61 2393.94 1377.44C2392.07 1376.21 2389.88 1375.6 2387.38 1375.6C2384.66 1375.6 2382.28 1376.29 2380.26 1377.68C2378.23 1379.01 2376.68 1380.77 2375.62 1382.96C2374.55 1385.09 2374.04 1387.39 2374.1 1389.84H2398.42ZM2439.93 1412.64C2439.93 1413.17 2439.82 1413.55 2439.61 1413.76C2439.4 1413.92 2439.02 1414 2438.49 1414H2434.33C2433.85 1414 2433.53 1413.92 2433.37 1413.76C2433.21 1413.6 2433.13 1413.31 2433.13 1412.88L2433.21 1355.76C2433.21 1355.01 2433.53 1354.64 2434.17 1354.64H2438.97C2439.61 1354.64 2439.93 1354.99 2439.93 1355.68V1412.64ZM2470.03 1414.8C2466.03 1414.8 2462.48 1413.89 2459.39 1412.08C2456.35 1410.21 2453.98 1407.63 2452.27 1404.32C2450.62 1401.01 2449.79 1397.25 2449.79 1393.04C2449.79 1388.72 2450.64 1384.88 2452.35 1381.52C2454.11 1378.16 2456.51 1375.55 2459.55 1373.68C2462.64 1371.76 2466.16 1370.8 2470.11 1370.8C2474.06 1370.8 2477.55 1371.76 2480.59 1373.68C2483.68 1375.55 2486.06 1378.16 2487.71 1381.52C2489.42 1384.88 2490.27 1388.69 2490.27 1392.96C2490.27 1397.17 2489.42 1400.93 2487.71 1404.24C2486 1407.55 2483.6 1410.13 2480.51 1412C2477.47 1413.87 2473.98 1414.8 2470.03 1414.8ZM2470.19 1409.76C2474.35 1409.76 2477.58 1408.27 2479.87 1405.28C2482.22 1402.24 2483.39 1398.08 2483.39 1392.8C2483.39 1387.57 2482.19 1383.44 2479.79 1380.4C2477.44 1377.31 2474.22 1375.76 2470.11 1375.76C2465.95 1375.76 2462.67 1377.31 2460.27 1380.4C2457.87 1383.44 2456.67 1387.57 2456.67 1392.8C2456.67 1398.03 2457.87 1402.16 2460.27 1405.2C2462.67 1408.24 2465.98 1409.76 2470.19 1409.76ZM2517.76 1370.8C2521.65 1370.8 2524.96 1371.71 2527.68 1373.52C2530.45 1375.33 2532.67 1377.73 2534.32 1380.72L2534.48 1381.36C2534.48 1381.68 2534.29 1381.87 2533.92 1381.92L2529.52 1382.96L2529.28 1383.04C2529.01 1383.04 2528.75 1382.83 2528.48 1382.4C2526.77 1380.11 2525.12 1378.43 2523.52 1377.36C2521.97 1376.29 2520.19 1375.76 2518.16 1375.76C2514 1375.76 2510.69 1377.31 2508.24 1380.4C2505.79 1383.44 2504.56 1387.57 2504.56 1392.8C2504.56 1398.08 2505.79 1402.24 2508.24 1405.28C2510.75 1408.32 2514.11 1409.84 2518.32 1409.84C2520.83 1409.84 2523.01 1409.23 2524.88 1408C2526.8 1406.77 2528.53 1404.88 2530.08 1402.32C2530.24 1402.05 2530.4 1401.92 2530.56 1401.92C2530.72 1401.87 2530.91 1401.89 2531.12 1402L2534.56 1403.28C2534.93 1403.44 2535.04 1403.79 2534.88 1404.32C2533.23 1407.41 2530.96 1409.95 2528.08 1411.92C2525.2 1413.84 2521.76 1414.8 2517.76 1414.8C2513.87 1414.8 2510.4 1413.89 2507.36 1412.08C2504.32 1410.21 2501.95 1407.63 2500.24 1404.32C2498.53 1401.01 2497.68 1397.23 2497.68 1392.96C2497.68 1388.69 2498.53 1384.88 2500.24 1381.52C2501.95 1378.11 2504.32 1375.47 2507.36 1373.6C2510.45 1371.73 2513.92 1370.8 2517.76 1370.8ZM2568.16 1408.88C2564.05 1412.83 2559.31 1414.8 2553.92 1414.8C2549.76 1414.8 2546.48 1413.76 2544.08 1411.68C2541.73 1409.55 2540.56 1406.72 2540.56 1403.2C2540.56 1398.93 2542.35 1395.57 2545.92 1393.12C2549.55 1390.67 2554.77 1389.23 2561.6 1388.8L2567.84 1388.32C2568.75 1388.21 2569.2 1387.81 2569.2 1387.12V1384.96C2569.2 1382.08 2568.29 1379.81 2566.48 1378.16C2564.72 1376.45 2562.32 1375.6 2559.28 1375.6C2554.59 1375.6 2550.75 1377.73 2547.76 1382C2547.6 1382.27 2547.44 1382.45 2547.28 1382.56C2547.12 1382.61 2546.91 1382.59 2546.64 1382.48L2542.32 1381.04C2542.05 1380.93 2541.92 1380.75 2541.92 1380.48C2541.92 1380.32 2542 1380.08 2542.16 1379.76C2543.76 1376.93 2546.03 1374.75 2548.96 1373.2C2551.95 1371.6 2555.47 1370.8 2559.52 1370.8C2564.75 1370.8 2568.75 1372.03 2571.52 1374.48C2574.29 1376.88 2575.68 1380.21 2575.68 1384.48V1412.8C2575.68 1413.28 2575.6 1413.6 2575.44 1413.76C2575.28 1413.92 2574.99 1414 2574.56 1414H2570.56C2569.92 1414 2569.55 1413.57 2569.44 1412.72L2569.28 1409.04C2569.23 1408.67 2569.09 1408.48 2568.88 1408.48C2568.67 1408.48 2568.43 1408.61 2568.16 1408.88ZM2569.2 1393.68C2569.2 1392.83 2568.8 1392.4 2568 1392.4L2562.8 1392.88C2557.84 1393.2 2554 1394.16 2551.28 1395.76C2548.61 1397.36 2547.28 1399.57 2547.28 1402.4C2547.28 1404.69 2548.08 1406.51 2549.68 1407.84C2551.33 1409.17 2553.52 1409.84 2556.24 1409.84C2557.89 1409.84 2559.52 1409.55 2561.12 1408.96C2562.72 1408.37 2564.13 1407.57 2565.36 1406.56C2566.59 1405.6 2567.52 1404.59 2568.16 1403.52C2568.85 1402.4 2569.2 1401.33 2569.2 1400.32V1393.68ZM2598.55 1376.56C2598.12 1376.56 2597.91 1376.8 2597.91 1377.28V1402.64C2597.91 1405.04 2598.31 1406.69 2599.11 1407.6C2599.91 1408.51 2601.21 1408.96 2603.03 1408.96H2608.55C2609.13 1408.96 2609.43 1409.25 2609.43 1409.84L2609.35 1412.56C2609.35 1413.09 2609.03 1413.44 2608.39 1413.6C2607 1413.87 2604.49 1414 2600.87 1414C2597.51 1414 2595.05 1413.23 2593.51 1411.68C2591.96 1410.08 2591.19 1407.57 2591.19 1404.16V1377.44C2591.19 1376.85 2590.92 1376.56 2590.39 1376.56H2583.99C2583.4 1376.56 2583.11 1376.29 2583.11 1375.76V1372.4C2583.11 1371.87 2583.37 1371.6 2583.91 1371.6H2590.71C2591.08 1371.6 2591.27 1371.39 2591.27 1370.96L2592.15 1358.24C2592.15 1357.55 2592.44 1357.2 2593.03 1357.2H2597.03C2597.67 1357.2 2597.99 1357.57 2597.99 1358.32V1370.96C2597.99 1371.39 2598.2 1371.6 2598.63 1371.6H2608.71C2609.29 1371.6 2609.59 1371.84 2609.59 1372.32V1375.76C2609.59 1376.29 2609.29 1376.56 2608.71 1376.56H2598.55ZM2625.33 1362.48C2625.33 1363.01 2625.22 1363.41 2625.01 1363.68C2624.79 1363.89 2624.42 1364 2623.88 1364H2619.25C2618.45 1364 2618.05 1363.55 2618.05 1362.64V1355.92C2618.05 1355.07 2618.42 1354.64 2619.17 1354.64H2624.21C2624.53 1354.64 2624.79 1354.75 2625.01 1354.96C2625.22 1355.17 2625.33 1355.47 2625.33 1355.84V1362.48ZM2625.01 1412.64C2625.01 1413.17 2624.9 1413.55 2624.69 1413.76C2624.47 1413.92 2624.1 1414 2623.57 1414H2619.49C2619.01 1414 2618.69 1413.92 2618.53 1413.76C2618.37 1413.6 2618.29 1413.31 2618.29 1412.88V1372.72C2618.29 1371.97 2618.61 1371.6 2619.25 1371.6H2624.13C2624.71 1371.6 2625.01 1371.95 2625.01 1372.64V1412.64ZM2655.19 1414.8C2651.19 1414.8 2647.64 1413.89 2644.55 1412.08C2641.51 1410.21 2639.13 1407.63 2637.43 1404.32C2635.77 1401.01 2634.95 1397.25 2634.95 1393.04C2634.95 1388.72 2635.8 1384.88 2637.51 1381.52C2639.27 1378.16 2641.67 1375.55 2644.71 1373.68C2647.8 1371.76 2651.32 1370.8 2655.27 1370.8C2659.21 1370.8 2662.71 1371.76 2665.75 1373.68C2668.84 1375.55 2671.21 1378.16 2672.87 1381.52C2674.57 1384.88 2675.43 1388.69 2675.43 1392.96C2675.43 1397.17 2674.57 1400.93 2672.87 1404.24C2671.16 1407.55 2668.76 1410.13 2665.67 1412C2662.63 1413.87 2659.13 1414.8 2655.19 1414.8ZM2655.35 1409.76C2659.51 1409.76 2662.73 1408.27 2665.03 1405.28C2667.37 1402.24 2668.55 1398.08 2668.55 1392.8C2668.55 1387.57 2667.35 1383.44 2664.95 1380.4C2662.6 1377.31 2659.37 1375.76 2655.27 1375.76C2651.11 1375.76 2647.83 1377.31 2645.43 1380.4C2643.03 1383.44 2641.83 1387.57 2641.83 1392.8C2641.83 1398.03 2643.03 1402.16 2645.43 1405.2C2647.83 1408.24 2651.13 1409.76 2655.35 1409.76ZM2686.44 1414C2685.69 1414 2685.32 1413.65 2685.32 1412.96V1372.64C2685.32 1371.95 2685.61 1371.6 2686.2 1371.6H2691C2691.58 1371.6 2691.88 1371.89 2691.88 1372.48V1377.12C2691.88 1377.71 2692.12 1377.79 2692.6 1377.36C2695.58 1375.01 2698.12 1373.33 2700.2 1372.32C2702.33 1371.31 2704.7 1370.8 2707.32 1370.8C2711.37 1370.8 2714.52 1371.89 2716.76 1374.08C2719.05 1376.27 2720.2 1379.2 2720.2 1382.88V1412.72C2720.2 1413.57 2719.8 1414 2719 1414H2714.52C2713.82 1414 2713.48 1413.65 2713.48 1412.96V1384.4C2713.48 1381.73 2712.78 1379.68 2711.4 1378.24C2710.06 1376.8 2707.98 1376.08 2705.16 1376.08C2702.92 1376.08 2700.84 1376.59 2698.92 1377.6C2697.05 1378.56 2694.76 1380.21 2692.04 1382.56V1412.8C2692.04 1413.23 2691.93 1413.55 2691.72 1413.76C2691.56 1413.92 2691.26 1414 2690.84 1414H2686.44ZM2770.66 1371.6C2771.2 1371.6 2771.46 1371.87 2771.46 1372.4V1375.84C2771.46 1376.32 2771.2 1376.56 2770.66 1376.56H2761.54C2761.12 1376.56 2760.9 1376.8 2760.9 1377.28V1412.88C2760.9 1413.63 2760.58 1414 2759.94 1414H2755.06C2754.48 1414 2754.18 1413.65 2754.18 1412.96V1377.2C2754.18 1376.77 2754 1376.56 2753.62 1376.56H2745.78C2745.25 1376.56 2744.98 1376.32 2744.98 1375.84V1372.4C2744.98 1371.87 2745.28 1371.6 2745.86 1371.6H2753.46C2753.94 1371.6 2754.18 1371.33 2754.18 1370.8V1364.96C2754.18 1358.08 2757.52 1354.64 2764.18 1354.64H2770.82C2771.52 1354.64 2771.86 1354.96 2771.86 1355.6V1358.72C2771.86 1359.25 2771.57 1359.52 2770.98 1359.52H2765.38C2762.29 1359.52 2760.74 1361.44 2760.74 1365.28V1370.88C2760.74 1371.36 2760.98 1371.6 2761.46 1371.6H2770.66ZM2782.3 1395.44C2782.3 1398 2782.91 1400.37 2784.14 1402.56C2785.42 1404.75 2787.12 1406.48 2789.26 1407.76C2791.39 1409.04 2793.74 1409.68 2796.3 1409.68C2801.63 1409.68 2805.79 1407.47 2808.78 1403.04C2808.99 1402.83 2809.18 1402.72 2809.34 1402.72C2809.5 1402.67 2809.68 1402.69 2809.9 1402.8L2813.26 1404.48C2813.68 1404.75 2813.74 1405.12 2813.42 1405.6C2811.34 1408.8 2808.86 1411.15 2805.98 1412.64C2803.1 1414.08 2799.66 1414.8 2795.66 1414.8C2791.76 1414.8 2788.27 1413.89 2785.18 1412.08C2782.08 1410.27 2779.66 1407.73 2777.9 1404.48C2776.19 1401.17 2775.34 1397.41 2775.34 1393.2C2775.34 1388.67 2776.22 1384.72 2777.98 1381.36C2779.74 1377.95 2782.14 1375.33 2785.18 1373.52C2788.27 1371.71 2791.74 1370.8 2795.58 1370.8C2799.42 1370.8 2802.78 1371.65 2805.66 1373.36C2808.59 1375.07 2810.86 1377.57 2812.46 1380.88C2814.06 1384.13 2814.86 1388 2814.86 1392.48V1392.8C2814.86 1393.28 2814.78 1393.65 2814.62 1393.92C2814.46 1394.13 2814.14 1394.24 2813.66 1394.24H2783.02C2782.54 1394.24 2782.3 1394.64 2782.3 1395.44ZM2806.78 1389.84C2807.36 1389.84 2807.74 1389.79 2807.9 1389.68C2808.06 1389.52 2808.14 1389.2 2808.14 1388.72C2808.14 1386.37 2807.63 1384.21 2806.62 1382.24C2805.66 1380.21 2804.22 1378.61 2802.3 1377.44C2800.43 1376.21 2798.24 1375.6 2795.74 1375.6C2793.02 1375.6 2790.64 1376.29 2788.62 1377.68C2786.59 1379.01 2785.04 1380.77 2783.98 1382.96C2782.91 1385.09 2782.4 1387.39 2782.46 1389.84H2806.78ZM2835.19 1376.56C2834.76 1376.56 2834.55 1376.8 2834.55 1377.28V1402.64C2834.55 1405.04 2834.95 1406.69 2835.75 1407.6C2836.55 1408.51 2837.85 1408.96 2839.67 1408.96H2845.19C2845.77 1408.96 2846.07 1409.25 2846.07 1409.84L2845.99 1412.56C2845.99 1413.09 2845.67 1413.44 2845.03 1413.6C2843.64 1413.87 2841.13 1414 2837.51 1414C2834.15 1414 2831.69 1413.23 2830.15 1411.68C2828.6 1410.08 2827.83 1407.57 2827.83 1404.16V1377.44C2827.83 1376.85 2827.56 1376.56 2827.03 1376.56H2820.63C2820.04 1376.56 2819.75 1376.29 2819.75 1375.76V1372.4C2819.75 1371.87 2820.01 1371.6 2820.55 1371.6H2827.35C2827.72 1371.6 2827.91 1371.39 2827.91 1370.96L2828.79 1358.24C2828.79 1357.55 2829.08 1357.2 2829.67 1357.2H2833.67C2834.31 1357.2 2834.63 1357.57 2834.63 1358.32V1370.96C2834.63 1371.39 2834.84 1371.6 2835.27 1371.6H2845.35C2845.93 1371.6 2846.23 1371.84 2846.23 1372.32V1375.76C2846.23 1376.29 2845.93 1376.56 2845.35 1376.56H2835.19ZM2871.51 1370.8C2875.4 1370.8 2878.71 1371.71 2881.43 1373.52C2884.2 1375.33 2886.42 1377.73 2888.07 1380.72L2888.23 1381.36C2888.23 1381.68 2888.04 1381.87 2887.67 1381.92L2883.27 1382.96L2883.03 1383.04C2882.76 1383.04 2882.5 1382.83 2882.23 1382.4C2880.52 1380.11 2878.87 1378.43 2877.27 1377.36C2875.72 1376.29 2873.94 1375.76 2871.91 1375.76C2867.75 1375.76 2864.44 1377.31 2861.99 1380.4C2859.54 1383.44 2858.31 1387.57 2858.31 1392.8C2858.31 1398.08 2859.54 1402.24 2861.99 1405.28C2864.5 1408.32 2867.86 1409.84 2872.07 1409.84C2874.58 1409.84 2876.76 1409.23 2878.63 1408C2880.55 1406.77 2882.28 1404.88 2883.83 1402.32C2883.99 1402.05 2884.15 1401.92 2884.31 1401.92C2884.47 1401.87 2884.66 1401.89 2884.87 1402L2888.31 1403.28C2888.68 1403.44 2888.79 1403.79 2888.63 1404.32C2886.98 1407.41 2884.71 1409.95 2881.83 1411.92C2878.95 1413.84 2875.51 1414.8 2871.51 1414.8C2867.62 1414.8 2864.15 1413.89 2861.11 1412.08C2858.07 1410.21 2855.7 1407.63 2853.99 1404.32C2852.28 1401.01 2851.43 1397.23 2851.43 1392.96C2851.43 1388.69 2852.28 1384.88 2853.99 1381.52C2855.7 1378.11 2858.07 1375.47 2861.11 1373.6C2864.2 1371.73 2867.67 1370.8 2871.51 1370.8ZM2898.39 1414C2897.7 1414 2897.35 1413.65 2897.35 1412.96V1355.68C2897.35 1354.99 2897.64 1354.64 2898.23 1354.64H2902.95C2903.54 1354.64 2903.83 1354.96 2903.83 1355.6V1376.96C2903.83 1377.55 2904.07 1377.63 2904.55 1377.2C2907.59 1374.85 2910.18 1373.2 2912.31 1372.24C2914.44 1371.28 2916.79 1370.8 2919.35 1370.8C2923.46 1370.8 2926.6 1371.89 2928.79 1374.08C2931.03 1376.27 2932.15 1379.23 2932.15 1382.96V1412.72C2932.15 1413.57 2931.75 1414 2930.95 1414H2926.47C2925.78 1414 2925.43 1413.65 2925.43 1412.96V1384.4C2925.43 1381.73 2924.74 1379.68 2923.35 1378.24C2922.02 1376.8 2919.94 1376.08 2917.11 1376.08C2914.87 1376.08 2912.82 1376.59 2910.95 1377.6C2909.14 1378.56 2906.84 1380.21 2904.07 1382.56V1412.8C2904.07 1413.6 2903.64 1414 2902.79 1414H2898.39ZM2951.03 1362.48C2951.03 1363.01 2950.92 1363.41 2950.71 1363.68C2950.49 1363.89 2950.12 1364 2949.59 1364H2944.95C2944.15 1364 2943.75 1363.55 2943.75 1362.64V1355.92C2943.75 1355.07 2944.12 1354.64 2944.87 1354.64H2949.91C2950.23 1354.64 2950.49 1354.75 2950.71 1354.96C2950.92 1355.17 2951.03 1355.47 2951.03 1355.84V1362.48ZM2950.71 1412.64C2950.71 1413.17 2950.6 1413.55 2950.39 1413.76C2950.17 1413.92 2949.8 1414 2949.27 1414H2945.19C2944.71 1414 2944.39 1413.92 2944.23 1413.76C2944.07 1413.6 2943.99 1413.31 2943.99 1412.88V1372.72C2943.99 1371.97 2944.31 1371.6 2944.95 1371.6H2949.83C2950.41 1371.6 2950.71 1371.95 2950.71 1372.64V1412.64ZM2964.25 1414C2963.5 1414 2963.13 1413.65 2963.13 1412.96V1372.64C2963.13 1371.95 2963.42 1371.6 2964.01 1371.6H2968.81C2969.4 1371.6 2969.69 1371.89 2969.69 1372.48V1377.12C2969.69 1377.71 2969.93 1377.79 2970.41 1377.36C2973.4 1375.01 2975.93 1373.33 2978.01 1372.32C2980.14 1371.31 2982.52 1370.8 2985.13 1370.8C2989.18 1370.8 2992.33 1371.89 2994.57 1374.08C2996.86 1376.27 2998.01 1379.2 2998.01 1382.88V1412.72C2998.01 1413.57 2997.61 1414 2996.81 1414H2992.33C2991.64 1414 2991.29 1413.65 2991.29 1412.96V1384.4C2991.29 1381.73 2990.6 1379.68 2989.21 1378.24C2987.88 1376.8 2985.8 1376.08 2982.97 1376.08C2980.73 1376.08 2978.65 1376.59 2976.73 1377.6C2974.86 1378.56 2972.57 1380.21 2969.85 1382.56V1412.8C2969.85 1413.23 2969.74 1413.55 2969.53 1413.76C2969.37 1413.92 2969.08 1414 2968.65 1414H2964.25ZM3048.17 1370.88C3049.18 1370.88 3049.69 1371.31 3049.69 1372.16V1374.96C3049.69 1375.49 3049.55 1375.89 3049.29 1376.16C3049.07 1376.37 3048.67 1376.45 3048.09 1376.4C3046.33 1376.4 3044.94 1376.64 3043.93 1377.12C3042.65 1377.65 3042.11 1378.27 3042.33 1378.96C3042.38 1379.17 3042.54 1379.57 3042.81 1380.16C3043.07 1380.75 3043.29 1381.41 3043.45 1382.16C3043.61 1382.85 3043.69 1383.6 3043.69 1384.4C3043.69 1388.19 3042.19 1391.28 3039.21 1393.68C3036.27 1396.08 3031.98 1397.28 3026.33 1397.28C3022.54 1397.28 3019.82 1397.6 3018.17 1398.24C3016.51 1398.88 3015.69 1399.71 3015.69 1400.72C3015.69 1401.52 3016.25 1402.13 3017.37 1402.56C3018.49 1402.93 3020.35 1403.2 3022.97 1403.36L3033.29 1403.92C3037.87 1404.19 3041.29 1405.28 3043.53 1407.2C3045.77 1409.12 3046.89 1411.73 3046.89 1415.04C3046.89 1419.09 3045.1 1422.27 3041.53 1424.56C3038.01 1426.85 3032.97 1428 3026.41 1428C3019.63 1428 3014.46 1427.01 3010.89 1425.04C3007.37 1423.12 3005.61 1420.35 3005.61 1416.72C3005.61 1413.15 3008.11 1410.13 3013.13 1407.68C3013.71 1407.41 3013.71 1407.12 3013.13 1406.8C3010.67 1405.73 3009.45 1404.16 3009.45 1402.08C3009.45 1400.91 3009.98 1399.79 3011.05 1398.72C3012.17 1397.65 3013.74 1396.77 3015.77 1396.08C3016.03 1396.03 3016.17 1395.89 3016.17 1395.68C3016.17 1395.41 3016.03 1395.23 3015.77 1395.12C3013.42 1393.89 3011.69 1392.43 3010.57 1390.72C3009.45 1388.96 3008.89 1386.85 3008.89 1384.4C3008.89 1380.24 3010.46 1376.96 3013.61 1374.56C3016.75 1372.16 3021.21 1370.96 3026.97 1370.96C3032.03 1370.96 3036.03 1372.16 3038.97 1374.56C3039.34 1374.83 3039.61 1374.96 3039.77 1374.96C3039.98 1374.96 3040.27 1374.83 3040.65 1374.56C3041.66 1373.55 3042.83 1372.69 3044.17 1372C3045.55 1371.25 3046.89 1370.88 3048.17 1370.88ZM3026.33 1393.04C3030.01 1393.04 3032.75 1392.29 3034.57 1390.8C3036.43 1389.31 3037.37 1387.15 3037.37 1384.32C3037.37 1381.44 3036.43 1379.2 3034.57 1377.6C3032.7 1376 3029.95 1375.2 3026.33 1375.2C3022.81 1375.2 3020.06 1376.03 3018.09 1377.68C3016.11 1379.28 3015.13 1381.49 3015.13 1384.32C3015.13 1387.09 3016.09 1389.25 3018.01 1390.8C3019.98 1392.29 3022.75 1393.04 3026.33 1393.04ZM3019.29 1408.8C3018.33 1408.75 3017.23 1409.04 3016.01 1409.68C3014.78 1410.27 3013.74 1411.12 3012.89 1412.24C3012.03 1413.36 3011.61 1414.59 3011.61 1415.92C3011.61 1418.48 3012.91 1420.43 3015.53 1421.76C3018.14 1423.15 3022.01 1423.84 3027.13 1423.84C3036.14 1423.84 3040.65 1421.17 3040.65 1415.84C3040.65 1413.97 3040.01 1412.51 3038.73 1411.44C3037.5 1410.37 3035.47 1409.76 3032.65 1409.6L3019.29 1408.8Z" fill="white"/>
<path d="M955.492 723C849.677 723 763.591 809.098 763.591 914.916C763.591 1016.77 937.706 1254.75 945.119 1264.83L952.038 1274.25C952.848 1275.35 954.136 1276 955.492 1276C956.868 1276 958.148 1275.35 958.966 1274.25L965.881 1264.83C973.298 1254.75 1147.41 1016.77 1147.41 914.916C1147.41 809.098 1061.31 723 955.492 723ZM955.492 846.172C993.405 846.172 1024.24 877.003 1024.24 914.916C1024.24 952.809 993.404 983.659 955.492 983.659C917.6 983.659 886.748 952.809 886.748 914.916C886.748 877.003 917.599 846.172 955.492 846.172Z" fill="#6B99DE"/>
</svg>
